<?xml version="1.0" standalone="no"?>
<!DOCTYPE svg PUBLIC "-//W3C//DTD SVG 20010904//EN"
 "http://www.w3.org/TR/2001/REC-SVG-20010904/DTD/svg10.dtd">
<svg version="1.0" xmlns="http://www.w3.org/2000/svg"
 width="480.000000pt" height="480.000000pt" viewBox="0 0 480.000000 480.000000"
 preserveAspectRatio="xMidYMid meet">
<metadata>
Created by potrace 1.14, written by Peter Selinger 2001-2017
</metadata>
<g transform="translate(0.000000,480.000000) scale(0.100000,-0.100000)"
fill="#000000" stroke="none">
<path d="M1914 4792 c-16 -10 -34 -48 -34 -71 0 -11 27 -50 60 -88 75 -87 144
-200 177 -294 24 -66 27 -89 27 -214 1 -120 -2 -151 -22 -215 -49 -153 -102
-238 -246 -389 -192 -202 -303 -353 -391 -536 -75 -155 -124 -327 -126 -444
l-1 -46 -29 61 c-61 127 -89 393 -70 654 10 135 10 147 -8 170 -13 18 -29 26
-57 28 -39 3 -43 0 -140 -100 -320 -329 -498 -740 -535 -1236 -24 -322 34
-641 175 -962 94 -214 211 -385 381 -555 179 -179 371 -307 602 -400 268 -109
519 -155 835 -155 297 0 531 53 793 180 500 241 851 672 945 1160 55 282 44
574 -32 818 -46 150 -162 359 -256 460 -31 34 -46 42 -74 42 -42 0 -55 -13
-97 -98 -69 -138 -158 -197 -287 -190 -61 3 -79 8 -115 33 -110 77 -129 240
-65 565 42 213 49 279 49 455 0 202 -17 317 -73 486 -169 511 -553 805 -1150
879 -97 12 -220 13 -236 2z"/>
</g>
</svg>
