<?xml version="1.0" encoding="utf-8"?>
<!-- Generator: Adobe Illustrator 26.0.2, SVG Export Plug-In . SVG Version: 6.00 Build 0)  -->
<svg version="1.1" id="Layer_1" xmlns="http://www.w3.org/2000/svg" xmlns:xlink="http://www.w3.org/1999/xlink" x="0px" y="0px"
	 viewBox="0 0 236.2 43" style="enable-background:new 0 0 236.2 43;" xml:space="preserve">
<style type="text/css">
	.st0{fill:none;}
	.st1{fill:none;stroke:#FFFFFF;stroke-width:0;stroke-linecap:round;stroke-linejoin:round;}
	.st2{fill:#D7AE6E;}
</style>
<g>
	<path class="st0" d="M-160.3-73.3c-0.1,0-0.1-0.1-0.2-0.1c0,0,0,0.1,0,0.1C-160.4-73.3-160.4-73.3-160.3-73.3z"/>
	<path class="st0" d="M-160.5-74.6C-160.5-74.6-160.5-74.6-160.5-74.6C-160.5-74.7-160.5-74.7-160.5-74.6
		C-160.5-74.7-160.5-74.7-160.5-74.6z"/>
	<path class="st0" d="M-160.6-74.6c0.1-0.1,0.2-0.2,0.2-0.3c-0.2,0-0.3,0.1-0.3,0c0.1-0.1,0.3-0.1,0.5-0.2c0.1-0.1,0.1-0.2,0-0.2
		c0,0-0.8,0.5-0.9,0.5c-0.2-0.2-0.2-0.3-0.1-0.4c-0.1-0.2,0.4-0.5,0.2-0.6c-1-0.5-0.9,2.1,0.1,1.5c0-0.1-0.1-0.1-0.2-0.2
		C-160.9-74.6-160.7-74.6-160.6-74.6z"/>
	<path class="st0" d="M-160.8-74.1C-160.8-74.1-160.8-74.1-160.8-74.1C-160.8-74.1-160.8-74.2-160.8-74.1
		C-160.8-74.2-160.8-74.1-160.8-74.1z"/>
	<path class="st0" d="M-160.9-74.3C-160.9-74.3-160.9-74.3-160.9-74.3c0,0,0.1-0.1,0.1-0.1C-160.8-74.4-160.9-74.3-160.9-74.3z"/>
	<path class="st0" d="M-159.5-73.3c0,0-0.1-0.1-0.1-0.1c0,0,0,0,0,0c0,0,0,0,0-0.1c-0.1-0.1-0.2-0.2-0.3-0.3
		c-0.1,0.1-0.2,0.3-0.2,0.4C-159.9-73.3-159.6-73.3-159.5-73.3C-159.5-73.2-159.5-73.2-159.5-73.3z"/>
	<path class="st0" d="M-159.6-72.9C-159.7-72.9-159.7-72.9-159.6-72.9c-0.2,0.1-0.6-0.1-0.8-0.4c-0.1,0-0.2,0.1-0.3,0.1
		c0,0,0,0,0,0.1c0.3,0.2,0.5,0.4,0.7,0.7c0.1-0.1,0.2-0.2,0.3-0.2C-159.7-72.6-159.7-72.7-159.6-72.9z"/>
	<path class="st0" d="M-159.7-72.5c0,0.1,0.1,0.2,0.3,0.1c0,0,0,0,0,0C-159.5-72.5-159.6-72.5-159.7-72.5z"/>
	<path class="st0" d="M-160.2-73.2c0,0,0.1-0.1,0.1-0.1C-160.2-73.3-160.2-73.3-160.2-73.2C-160.2-73.2-160.2-73.2-160.2-73.2z"/>
	<path class="st0" d="M-159.5-75.2c0,0,0.1,0,0.1-0.1c0,0,0,0,0,0C-159.4-75.2-159.4-75.2-159.5-75.2
		C-159.5-75.2-159.5-75.2-159.5-75.2z"/>
	<path class="st0" d="M-160.8-74.4c0.1-0.1,0.2-0.1,0.2-0.3c0,0,0,0,0,0C-160.6-74.6-160.7-74.5-160.8-74.4z"/>
	<path class="st0" d="M-161.7-68.7c0.6,0,0.9-0.4-0.1-0.8c-0.2,0.1-0.3,0.2-0.4,0.3C-162.3-69-162.4-68.8-161.7-68.7z"/>
	<path class="st0" d="M-160.8-72.6c-0.1-0.2-0.1-0.3-0.1-0.4c-0.2,0-0.6-0.1-0.7-0.2c0,0-0.1,0-0.1,0c-0.1,0.3,0.3,0.6,0.6,0.9
		c0,0,0,0,0,0c0,0,0,0,0,0c0.1,0.1,0.1,0.1,0.2,0.2c0,0,0,0,0,0c0,0,0,0,0,0c0,0-0.2,0-0.3-0.1c-0.1,0.1-0.1,0.2-0.2,0.2
		c0,0,0,0,0,0c0.1,0,0.3,0.1,0.4,0.1c0.3,0,0.5-0.1,0.6-0.1C-160.2-72.2-160.7-72.4-160.8-72.6z"/>
	<path class="st0" d="M-161.5-71.9C-161.5-71.9-161.4-72-161.5-71.9c0-0.1-0.1-0.1-0.2-0.2c-0.1,0-0.1,0.1-0.2,0.1
		c0-0.1,0.1-0.1,0.1-0.2c0,0,0,0,0,0c-0.3,0-0.6,0.1-0.6,0.4c0.2,0,0.6,0,1,0C-161.3-71.8-161.4-71.9-161.5-71.9
		C-161.4-71.9-161.4-71.9-161.5-71.9z"/>
	<path class="st0" d="M-164-71.7c0.7,0.2,0.9-0.3,1-0.4c-0.1-0.1-0.2-0.2-0.2-0.3c-0.2,0.2-0.3,0.3-0.4,0.3c-0.1,0-0.2,0-0.2,0
		C-163.9-71.9-164.1-71.7-164-71.7z"/>
	<path class="st0" d="M-162.4-71.7C-162.4-71.7-162.4-71.7-162.4-71.7C-162.4-71.7-162.4-71.7-162.4-71.7
		C-162.4-71.7-162.4-71.7-162.4-71.7z"/>
	<path class="st0" d="M-161.6-73.2c0-0.1,0.1-0.2,0.3-0.4c0.2,0.2,0.4,0.3,0.6,0.5c0,0,0,0,0,0c0,0,0-0.1,0-0.1
		c-0.2-0.4,0.1-0.3,0.3-0.2c0-0.1,0-0.2,0.1-0.3c-0.4,0.1-0.4-0.1-0.2-0.3c-0.1,0.1-0.2,0.1-0.3,0.3c0.1-0.1,0.1-0.2,0.1-0.3
		c-0.1,0-0.1,0.1-0.2,0.1c0.1,0,0.1-0.1,0.2-0.1c0,0,0-0.1-0.1-0.1c-0.5,0.5-1,1-1.2,1.1c-0.1,0-0.2,0-0.3,0c0,0-0.1,0.1-0.1,0.1
		C-162.2-73.1-161.8-73.2-161.6-73.2z"/>
	<path class="st0" d="M-162.3-77.3c-0.1,0-0.1,0-0.2,0.1c0,0.1,0,0.1-0.1,0.2C-162.5-77.1-162.4-77.2-162.3-77.3z"/>
	<path class="st0" d="M-163.1-76.3C-163.2-76.3-163.2-76.3-163.1-76.3c0.1,0.1,0.2,0.2,0.4,0.2C-162.9-76.2-163.1-76.2-163.1-76.3z"
		/>
	<path class="st0" d="M-159.5-76.9c-0.4-0.2-0.6,0.1-0.7,0.4C-160-76.6-159.7-76.8-159.5-76.9C-159.5-76.9-159.5-76.9-159.5-76.9z"
		/>
	<path class="st0" d="M-161.3-77.6c-0.1,0-0.1,0-0.1-0.1C-161.4-77.4-161.3-77.5-161.3-77.6z"/>
	<path class="st0" d="M-161.5-78.1C-161.5-78.1-161.5-78.2-161.5-78.1C-161.5-78.2-161.5-78.2-161.5-78.1z"/>
	<path class="st0" d="M-161-77.5c-0.1,0-0.4,0-0.7,0.2C-161.3-77.2-160.8-77.2-161-77.5z"/>
	<path class="st0" d="M-162-77.4c0,0.1,0,0.2,0,0.2c0.1-0.1,0.2-0.1,0.3-0.2c0,0-0.1,0-0.1-0.1C-161.8-77.4-161.9-77.4-162-77.4z"/>
	<path class="st0" d="M-162.3-77.3c0.1,0,0.2-0.1,0.3-0.1c0,0,0,0,0,0C-162.1-77.4-162.2-77.3-162.3-77.3z"/>
	<path class="st0" d="M-160.8-77.7c0.2-0.1,0.4-0.2,0.6-0.3c0.1-0.2,0.2-0.3,0.3-0.2c0.1,0.2,0.1,0.3,0,0.5c0.8-0.9,0.3-1-0.7-0.4
		c-0.1-0.1-0.1-0.2,0-0.3c-0.2,0-0.4,0.2-0.6,0.4c0.1-0.2,0.1-0.3,0-0.5c0,0.1-0.1,0.2-0.2,0.3c0.1,0,0.2,0.4,0.1,0.6
		c0.1,0,0.2,0,0.3,0C-161.1-77.8-161-77.8-160.8-77.7z"/>
	<path class="st0" d="M-161.1-78.8c-0.1,0-0.1,0.1-0.2,0.1c0,0,0.1,0.1,0.1,0.1C-161.2-78.6-161.1-78.7-161.1-78.8z"/>
	<path class="st0" d="M-162.7-76.7c-0.6,0.5,0.1,0.2,0,0.5c0,0-0.1,0-0.1,0.1c0.3,0,0.6,0,0.4-0.3c-0.5-0.6,0.8,0,0.6,0
		c0,0,0.1-0.1,0.1-0.2C-161.8-76.9-162.2-76.9-162.7-76.7z"/>
	<path class="st0" d="M-160.2-76.5c-0.4,0.2-0.7,0.4-0.4,0.1c-0.2,0.2-0.4,0.2-0.6,0.1c0.2-0.1,1.5-1.8,1.3-1.9c0,0-0.1,0.1-0.2,0.1
		c-0.1,0.2-0.1,0.4-0.2,0.5c0.1,0-0.1-0.1-0.4-0.2c-0.1,0-0.2,0.1-0.3,0.1c0,0,0,0.1,0.1,0.1c0,0,0,0,0,0c0.2,0.1,0.1,0.3-0.3,0.8
		c0.1-0.2,0.1-0.3,0-0.5c-0.2-0.1-0.4,0.3-0.5,0.6c0,0.1,0,0.2-0.1,0.4c0.2-0.2,0.4-0.4,0.7-0.4c-0.1,0.2-0.2,0.3-0.3,0.4
		c0.5,0.1,1.1,0.1,1,0.5c0.1,0,0.2,0,0.3,0C-160.2-75.9-160.3-76.2-160.2-76.5z"/>
	<path class="st0" d="M-160.2-79.2C-160.1-79.2-160.1-79.3-160.2-79.2C-160.1-79.3-160.1-79.3-160.2-79.2z"/>
	<path class="st0" d="M-159.9-78.7c-0.1,0-0.1,0-0.1-0.1C-160-78.5-160-78.6-159.9-78.7z"/>
	<path class="st0" d="M-160.8-75.4c-0.1,0-0.3,0.1-0.3,0.3c0,0,0,0,0,0.1C-161-75.3-160.9-75.4-160.8-75.4z"/>
	<path class="st0" d="M-160.7-75.2c0.2-0.2,0.2-0.3,0.3-0.4c-0.1,0-0.2,0.1-0.4,0.2C-160.7-75.5-160.6-75.4-160.7-75.2z"/>
	<path class="st0" d="M-161.7-72.2C-161.7-72.2-161.7-72.2-161.7-72.2C-161.7-72.1-161.7-72.1-161.7-72.2c0.1,0,0.1,0,0.2,0
		C-161.6-72.2-161.6-72.2-161.7-72.2z"/>
	<path class="st0" d="M-160.9-72.9c0.1,0,0.1-0.1,0.1-0.1c0,0,0,0,0,0C-160.8-73.1-160.9-73-160.9-72.9z"/>
	<path class="st0" d="M-161.2-72.2c0,0,0.1-0.1,0.1-0.1c0,0,0,0,0,0c-0.2,0-0.3,0-0.4,0.1C-161.4-72.2-161.3-72.2-161.2-72.2z"/>
	<path class="st0" d="M-159.6-73.5C-159.6-73.4-159.6-73.4-159.6-73.5C-159.6-73.4-159.6-73.4-159.6-73.5
		C-159.6-73.4-159.6-73.4-159.6-73.5C-159.6-73.4-159.6-73.5-159.6-73.5z"/>
	<path class="st0" d="M-159.4-74.2c-0.1,0-0.1-0.1-0.2-0.2c0,0.1,0,0.1,0,0.2C-159.6-74.2-159.5-74.2-159.4-74.2z"/>
	<path class="st0" d="M-159.6-74.2c-0.1,0-0.1,0-0.1-0.1C-159.7-74.1-159.6-74.1-159.6-74.2z"/>
	<path class="st0" d="M-162.5-72.6c-0.7,0.4,0.1,0.2,0,0.5c-0.1,0-0.1,0.1-0.2,0.1c0.1,0.1,0.1,0.2,0.2,0.3c0,0,0.1,0,0.2,0
		c-0.1-0.2,0.4-0.4,0.2-0.6c0.2,0.1,0.3,0.1,0.4,0.2c0,0,0,0,0,0C-161.4-72.7-162-72.8-162.5-72.6z"/>
	<path class="st0" d="M-159.6-73.5C-159.6-73.5-159.6-73.5-159.6-73.5C-159.6-73.5-159.5-73.5-159.6-73.5
		C-159.6-73.5-159.6-73.5-159.6-73.5z"/>
	<path class="st0" d="M-163-72.1c0.1,0,0.1,0.1,0.2,0.1C-162.9-72.2-162.9-72.2-163-72.1z"/>
	<path class="st0" d="M-162.8-73c-0.3,0.2-0.4,0.4-0.3,0.6c0.2-0.2,0.5-0.4,0.7-0.6C-162.7-73-162.8-73-162.8-73z"/>
	<path class="st1" d="M-159.4-73.2C-159.4-73.2-159.4-73.2-159.4-73.2"/>
	<path class="st1" d="M-160.9-72.1C-160.9-72.1-160.9-72.1-160.9-72.1"/>
	<path class="st1" d="M440.7-138.7C440.7-138.7,440.7-138.7,440.7-138.7"/>
	<g>
		<polygon class="st0" points="191,44.8 191,44.8 191,44.8 		"/>
		<polygon class="st0" points="175.1,44.6 175.1,44.6 175.1,44.6 		"/>
		<path class="st0" d="M86.4,42.6C86.4,42.6,86.5,42.6,86.4,42.6L86.4,42.6C86.4,42.6,86.4,42.6,86.4,42.6L86.4,42.6z"/>
		<path class="st0" d="M102.9,44.3c0,0.1,0,0.2,0.1,0.2c0.1-0.1,0.5-0.1,0.7-0.1c0-0.1,0.1-0.1,0.1-0.2h0c0.3-0.2,0.4-0.3,0.5-0.4
			c0,0-0.1-0.1-0.1-0.1C103.9,44,103.2,44.1,102.9,44.3C102.9,44.3,102.9,44.3,102.9,44.3z"/>
		<path d="M112.5,6.4c0,0-0.1,0-0.1-0.1c0,0,0,0,0,0c0,0-0.1,0.1-0.1,0.3c0-0.1,0.3,0.2,0.4,0.3C112.7,6.8,112.7,6.7,112.5,6.4z"/>
		<path d="M112.2,6.4c0.1,0,0.2-0.1,0.2-0.1c0,0,0,0,0,0c-0.1,0-0.1,0-0.2,0C112.3,6.3,112.4,6.4,112.2,6.4z"/>
		<path d="M58.5,19.2c0-0.1,0-0.1-0.1-0.2C58.4,19.1,58.4,19.2,58.5,19.2C58.4,19.2,58.4,19.2,58.5,19.2z"/>
		<path d="M59.1,19.4C59.1,19.4,59.1,19.4,59.1,19.4C59.1,19.4,59.1,19.4,59.1,19.4C59.1,19.4,59.1,19.4,59.1,19.4z"/>
		<path d="M222.4,4c0.1-0.1,0.1-0.1,0.2-0.2h0c-0.3-0.3-0.8,0-1.2,0.5c0,0.1,0.1,0.2,0.1,0.3C221.7,4.5,222.2,4.1,222.4,4z"/>
		<path d="M66.4,10.9C66.5,10.9,66.5,10.9,66.4,10.9c0.1,0,0.1,0,0.2-0.1C66.6,10.8,66.5,10.7,66.4,10.9z"/>
		<path d="M64,21.4c0.1-0.8,0.5-1.4,0.9-2c0.1-0.2,0.2-0.3,0.2-0.5c0.1-0.4,0-0.7-0.4-0.9c-0.4-0.2-1,0-1.4,0.5
			c-0.3,0.4-0.5,1-0.7,1.5c-0.2,0.3-0.4,0.7-0.6,0.9c-0.3,0.4-0.7,0.7-1,1.1c-0.3,0.3-0.2,0.6,0.2,0.8c0,0,0,0,0,0c0,0,0,0,0-0.1
			c0.2,0,0.4,0.1,0.6,0.2c0,0,0,0,0,0c0.1,0,0.2,0,0.3,0.1C63.2,22.9,63.7,22.5,64,21.4C64,21.4,64,21.4,64,21.4z"/>
		<path d="M65.8,32.8C65.8,32.8,65.8,32.8,65.8,32.8c0.2-0.1,0.4-0.1,0.5-0.2C66,32.6,65.8,32.6,65.8,32.8z"/>
		<path d="M113.1,6.3c-0.2-0.3-0.4-0.6-0.6-0.5c0,0.1,0,0.1,0,0.2C112.7,6.1,112.9,6.2,113.1,6.3C113.1,6.3,113.1,6.3,113.1,6.3z"/>
		<path d="M150.8,5.5C150.7,5.5,150.7,5.5,150.8,5.5C150.7,5.5,150.7,5.5,150.8,5.5C150.7,5.5,150.7,5.5,150.8,5.5
			C150.8,5.6,150.8,5.5,150.8,5.5z"/>
		<path d="M58.7,20.1C58.6,20.1,58.6,20.1,58.7,20.1C58.6,20.1,58.6,20.1,58.7,20.1C58.6,20.1,58.6,20.2,58.7,20.1
			C58.7,20.1,58.7,20.1,58.7,20.1z"/>
		<path d="M58.9,20.2c-0.1,0-0.2,0-0.2,0c0,0,0,0,0,0.1C58.8,20.3,58.8,20.2,58.9,20.2z"/>
		<path d="M58.4,19.3c-0.1,0.4-0.1,0.7,0.1,0.9c0,0,0.1,0,0.1,0c0,0,0,0,0,0C58.5,19.9,58.5,19.5,58.4,19.3z"/>
		<path d="M150.8,5.3C150.7,5.4,150.7,5.4,150.8,5.3c-0.1,0.1-0.1,0.1-0.1,0.1C150.7,5.4,150.8,5.4,150.8,5.3z"/>
		<polygon points="134.8,37.8 134.8,37.8 134.8,37.8 		"/>
		<path d="M130.1,36.5c-0.1,0-0.2,0.1-0.3,0.1c0,0,0,0,0,0.1h0c-0.2,0-0.2,0.1-0.2,0.3c0.2-0.1,0.4-0.2,0.5-0.3
			C130.2,36.6,130.2,36.6,130.1,36.5z"/>
		<path d="M59.1,20.2c-0.1,0-0.1-0.1-0.1-0.1c0,0,0,0.1-0.1,0.1C59,20.2,59,20.2,59.1,20.2z"/>
		<polygon points="131.6,40.1 131.6,40.1 131.6,40.1 		"/>
		<path d="M131.6,39.9c0,0.1,0,0.2,0,0.2c0.2-0.1,0.4-0.5,0.6-0.9c0,0,0,0,0,0C132.2,39.2,131.9,39.5,131.6,39.9z"/>
		<path d="M112.4,6.3C112.4,6.3,112.4,6.3,112.4,6.3C112.4,6.3,112.4,6.3,112.4,6.3C112.4,6.3,112.4,6.3,112.4,6.3z"/>
		<path d="M231.6,5.9L231.6,5.9C231.6,5.8,231.6,5.8,231.6,5.9C231.6,5.8,231.6,5.8,231.6,5.9z"/>
		<path d="M105.8,0.7C105.8,0.7,105.8,0.7,105.8,0.7C105.8,0.7,105.8,0.7,105.8,0.7L105.8,0.7z"/>
		<path d="M66.5,10.1c-0.1,0-0.1,0.1-0.2,0.3c0.1,0,0.2-0.1,0.4-0.1C66.7,10.2,66.6,10.1,66.5,10.1z"/>
		<path d="M39.6,15.7c0,0-0.1,0-0.2,0c0,0.1,0,0.1,0,0.1c-0.1,0.1-0.1,0.1-0.2,0.1C39.3,16,39.5,16,39.6,15.7z"/>
		<path d="M106.6,0.4c0,0,0.1,0,0.1-0.1l-0.2,0c0,0.1,0,0.1-0.1,0.2C106.5,0.5,106.5,0.5,106.6,0.4z"/>
		<path d="M82,17.9c0-0.1,0-0.2,0-0.2c0.1-0.6,0.1-1.2,0.2-1.8c0.1-0.6,0-1.1-0.6-1.4c-0.9-0.5-1.8-0.9-2.7-0.8
			c-1.2,0-1.5,0.2-1.7,1c-0.1,0.3-0.1,0.6-0.1,0.8c0,0.5-0.1,0.9-0.5,1.1c-0.4,0.3-0.5,0.6-0.4,1c0.1,0.8,0.2,1.6-0.2,2.4
			c-0.3,0.7,0.1,1.3,0.9,1.4c0.1,0,0.2,0,0.3,0c0-0.4,0.1-0.8,0.2-1.2c0.3,0.3,0.1,0.7,0.1,1.1c0.4-0.1,0.8-0.2,1.1-0.5
			c0.3-0.2,0.5-0.3,0.8-0.4C80.9,20.3,81.3,18.9,82,17.9z"/>
		<polygon points="85.9,25 85.9,25 85.9,25 		"/>
		<path d="M58.7,20.1c0.2-0.2,0.4-0.6,0.4-0.7c-0.2-0.1-0.4-0.1-0.6-0.1C58.6,19.5,58.6,19.9,58.7,20.1z"/>
		<path d="M113.9,26.5c-0.1,0.1-0.2,0.2-0.3,0.3c0,0.1,0,0.2,0.1,0.2c0.1-0.1,0.3-0.2,0.4-0.3C114,26.6,114,26.6,113.9,26.5z"/>
		<path d="M95.7,15.3c0.1,0,0.2,0,0.4,0c0,0,0-0.1,0-0.1C95.9,15.3,95.7,15.3,95.7,15.3z"/>
		<path d="M95.5,15.3C95.5,15.3,95.5,15.3,95.5,15.3C95.4,15.3,95.4,15.3,95.5,15.3C95.5,15.3,95.5,15.3,95.5,15.3z"/>
		<path d="M67,11c0-0.2-0.1-0.3-0.2-0.5c0,0.1-0.1,0.2-0.2,0.3C66.8,10.9,66.9,11.1,67,11z"/>
		<path d="M66.4,10.4c-0.1,0-0.2,0-0.2,0.1c0,0.1,0,0.3,0.1,0.5C66.3,10.9,66.3,10.6,66.4,10.4z"/>
		<path d="M66.8,10.3c0,0-0.1,0-0.1,0c0,0.1,0.1,0.1,0.1,0.2C66.8,10.4,66.9,10.3,66.8,10.3z"/>
		<path d="M222.7,4.2c0.2,0.4,0.5-0.3,0.8-0.6c-0.2-0.4-0.1-0.7,0.3-1c0,0,0,0-0.1-0.1C223.2,2.7,222.9,3.6,222.7,4.2z"/>
		<path d="M36.9,13.4c0,0,0.1,0.1,0.1,0.2c0-0.2,0.1-0.3,0.1-0.5C36.9,13.1,36.9,13.2,36.9,13.4z"/>
		<path d="M58.3,19.2C58.4,19.2,58.4,19.2,58.3,19.2C58.4,19.2,58.4,19.2,58.3,19.2C58.4,19.2,58.4,19.2,58.3,19.2z"/>
		<path d="M113.5,5.5C113.5,5.5,113.5,5.4,113.5,5.5C113.5,5.5,113.5,5.5,113.5,5.5C113.5,5.5,113.5,5.5,113.5,5.5z"/>
		<polygon points="221.8,3.1 221.8,3.1 221.8,3.1 		"/>
		<polygon points="92.8,41.2 92.8,41.2 92.8,41.2 		"/>
		<path d="M58.3,19.2c-0.4-0.1-0.7,0-0.7,0.1c0,0.1,0.1,0.2,0.2,0.3C57.9,19.6,58.1,19.5,58.3,19.2z"/>
		<path d="M59.2,19.4L59.2,19.4C59.2,19.4,59.2,19.4,59.2,19.4c0-0.1-0.1-0.1-0.1-0.1C59.2,19.8,59.2,19.9,59.2,19.4z"/>
		<path d="M104.5,42.4c0-0.1-0.4,0.1-0.7,0.3l0.5,0C104.4,42.6,104.5,42.5,104.5,42.4z"/>
		<path d="M58.3,19.2C58.3,19.2,58.3,19.2,58.3,19.2C58.3,19.2,58.3,19.1,58.3,19.2C58.3,19.1,58.3,19.2,58.3,19.2z"/>
		<path d="M110.9,6.8C111,6.8,111,6.8,110.9,6.8C111,6.8,111,6.8,110.9,6.8C110.9,6.8,110.9,6.8,110.9,6.8
			C110.9,6.8,110.9,6.8,110.9,6.8z"/>
		<path d="M197.2,27.6c-0.1,0.1-0.1,0.1-0.1,0.2c0,0,0,0,0,0.1c0,0.1,0.1,0.1,0.2,0.2c0.1-0.1,0.2-0.2,0.2-0.3
			C197.4,27.8,197.3,27.7,197.2,27.6C197.2,27.6,197.2,27.6,197.2,27.6z"/>
		<path d="M151.5,5.1C151.5,5,151.5,5,151.5,5.1c0-0.1-0.2-0.2-0.2-0.4C151.3,4.9,151.2,5,151.5,5.1z"/>
		<path d="M206.8,19.9C206.8,19.9,206.8,19.9,206.8,19.9C206.8,19.9,206.8,19.9,206.8,19.9L206.8,19.9z"/>
		<path d="M151.5,4.9C151.5,4.9,151.5,5,151.5,4.9C151.6,5,151.6,5,151.5,4.9z"/>
		<path d="M151.2,4.7C151.2,4.7,151.2,4.7,151.2,4.7C151.2,4.7,151.2,4.7,151.2,4.7C151.2,4.7,151.2,4.7,151.2,4.7z"/>
		<path d="M151.1,4.3C151.1,4.3,151.1,4.3,151.1,4.3c-0.1,0-0.1,0.1,0,0.1C151.1,4.4,151.1,4.4,151.1,4.3z"/>
		<path d="M152,40.8c-0.1,0-0.3-0.1-0.4-0.1c0,0,0,0.1,0,0.1C151.8,40.8,152,40.8,152,40.8z"/>
		<path d="M150.8,5.2C150.8,5.3,150.8,5.3,150.8,5.2L150.8,5.2C150.8,5.3,150.8,5.3,150.8,5.2C150.8,5.3,150.8,5.3,150.8,5.2z"/>
		<path d="M151,5.6C150.9,5.6,150.9,5.6,151,5.6c-0.1,0.1-0.1,0.1-0.1,0.1c0,0,0,0.1,0.1,0.1C151,5.7,151,5.6,151,5.6
			C151,5.5,151,5.5,151,5.6z"/>
		<path d="M151.4,5.2c-0.2,0-0.3-0.1-0.3-0.1c0,0,0,0.2-0.1,0.3c0,0,0,0,0,0c0,0,0,0,0,0c0,0,0.3,0.1,0.4,0.1
			C151.4,5.3,151.4,5.3,151.4,5.2z"/>
		<polygon points="150.8,5.3 150.8,5.3 150.8,5.3 		"/>
		<path d="M151,5.5C151,5.5,151,5.5,151,5.5c0,0,0.1,0.1,0.2,0.2c-0.1-0.1-0.1-0.2-0.2-0.3C151,5.4,151,5.5,151,5.5z"/>
		<path d="M150.9,5.7C150.9,5.6,150.9,5.6,150.9,5.7c0.1-0.2,0.1-0.2,0.1-0.3c0-0.1-0.1-0.2-0.1-0.3c0,0.1,0,0.1-0.1,0.2
			c0,0.1,0,0.1,0,0.2C150.8,5.6,150.8,5.6,150.9,5.7C150.8,5.7,150.9,5.7,150.9,5.7z"/>
		<path d="M150.8,5.6C150.8,5.6,150.8,5.6,150.8,5.6C150.8,5.6,150.8,5.6,150.8,5.6C150.7,5.6,150.7,5.6,150.8,5.6L150.8,5.6
			c-0.2,0-0.2,0.1-0.1,0.2C150.8,5.8,150.8,5.7,150.8,5.6C150.8,5.7,150.8,5.7,150.8,5.6z"/>
		<path d="M151.5,5.1C151.4,5.1,151.4,5.1,151.5,5.1c0,0.1,0.1,0.1,0.1,0c0,0,0,0,0,0C151.5,5.1,151.5,5.1,151.5,5.1z"/>
		<path d="M160.3,11.5c0.7-0.2,0.1-0.5-0.3-0.5c0,0-0.1,0.1-0.1,0.2C160,11.3,160.2,11.4,160.3,11.5z"/>
		<path d="M182.4,28c0,0-0.1,0.1-0.1,0.1c0.1-0.1,0.2-0.1,0.2,0h0c-0.1,0.2,0,0.3,0,0.3c0.2-0.1,0.3-0.2,0.5-0.3
			C182.9,28,182.7,27.9,182.4,28z"/>
		<polygon points="193.6,39.6 193.6,39.6 193.6,39.6 		"/>
		<path d="M195.7,2.2c0.1,0.1,0.2,0.1,0.2,0.2c-0.1-0.3-0.3-0.6-0.4-0.7C195.5,1.6,195.6,1.9,195.7,2.2z"/>
		<path d="M150.8,5c0,0,0-0.1-0.1-0.1C150.7,4.9,150.7,4.9,150.8,5c-0.1,0,0,0.1,0,0.2C150.8,5.2,150.8,5.1,150.8,5z"/>
		<path d="M160.3,11.5c0.1,0.1,0.1,0.1,0.2,0.1C160.4,11.5,160.4,11.5,160.3,11.5z"/>
		<path d="M34.1,12.9C34.1,12.9,34.2,13,34.1,12.9C34.2,12.9,34.2,12.9,34.1,12.9z"/>
		<path d="M150.9,5.1c0.1-0.2,0.1-0.3,0.1-0.5c-0.1,0-0.2-0.1-0.3-0.1C150.8,4.7,150.8,4.9,150.9,5.1C150.8,5,150.8,5.1,150.9,5.1z"
			/>
		<path d="M151.2,4.6C151.2,4.6,151.2,4.7,151.2,4.6C151.3,4.7,151.3,4.7,151.2,4.6z"/>
		<path d="M151,4.5c0,0.1,0,0.1,0,0.2c0.1,0,0.1,0,0.2,0C151.1,4.6,151.1,4.5,151,4.5z"/>
		<path d="M139.6,38.2C139.6,38.2,139.6,38.2,139.6,38.2C139.6,38.2,139.6,38.2,139.6,38.2L139.6,38.2z"/>
		<path d="M216.4,42.2l3.9,0.1l3.9-0.4l3.9,0l3.9-0.2l3.7,0.4l-2-3.1l-0.1-0.1c-0.3,0-0.7,0-1.1,0.2c0.1-0.1,0.2-0.2,0.2-0.4h0
			c0,0,0.3-0.1,0.6-0.2l-2.2-2.6l-3.1-2.5l-1.9-3.5l-2.6-2.9l-3-2.6l-2.1-3.1l1-1.6c-0.2-0.3-0.3-0.7-0.3-0.9c0.4,0,0.4,0.6,0.4,0.7
			l0.9-1.4l3.1-2.5l2.1-3.4l3.1-2.5l2.1-3.3l0.3-0.4C231.2,6,231.1,6,231,6h0c0-0.5,0.6-0.8,1.3-1l1.3-1.5l2.6-3l-4,0.5l-4-0.1
			l-1-0.1c-0.1,0.2-0.3,0.4-0.3,0.6c0.2,0.1,0.3-0.2,0.5-0.1c-0.1,0.2-0.3,0.5-0.5,0.7c0.2,0.5,0.7-0.2,1-0.1
			c-0.2,0.2-0.3,0.5-0.5,0.7c0-0.1,0-0.1,0-0.2c0,0-0.6-0.1-0.8,0.1c0,0,0,0,0,0l0,0c0,0,0,0,0,0c-0.4-0.3-0.1-1.1,0.2-1.7l-2.6-0.2
			l-4,0.5l-4-1l-4,0l-4,1.1l-4-0.3l-4-0.2l-0.5,0c0,0.1,0,0.3,0,0.4c-0.2,0-0.8-0.2-1-0.4l-2.5-0.1l-4,0.1l-4-0.2l-4-0.2l-4,0.2
			l-4-0.1l-4,0.3l-4-0.1l-4,0.2l-4,0.7l-4-0.2l-4-0.8l-4,0.3L145,0l-4,0.2l-4,0.3l-4,0.6l-4-0.4l-4-0.6l-4,0.1l-4-0.1l-4,0l-4,0.1
			l-2.5,0c-0.1,0-0.1,0-0.2,0.1c-0.1,0.1-0.2,0.1-0.2,0.2c0,0,0,0,0,0c-0.2,0.2-0.5,0.5-0.6,0.6c0.3-0.5-0.1-0.4-0.4-0.1
			c0,0.1,0,0.1,0,0c0,0,0,0,0,0c0-0.2-0.1-0.6-0.2-0.5c0.6-0.5,0.2,0.1,0.5,0.1c0.1-0.1,0.1-0.3,0.1-0.4l-0.6,0l-4,0.1l-4,0.5
			l-4-0.7l-4,0.6l-4-0.6l-4,0.5l-4-0.5l-4,0.5l-4-0.3l-4,0.3l-4,0.2l-4-0.9l-4,1l-4-1l-4,0.2l-4,0.1l-4,0.2L34,1l-4-0.4l-4-0.1
			l-4,0.7l-4-0.8l-1.7,0.2c-0.3,0-0.7,0.1-1,0.3c0-0.1,0-0.1,0.1-0.2l-1.3,0.1l-1,3.8l-1.8,3.6l-1.3,3.8l-0.9,3.9l-1.9,3.6l-1.2,3.8
			L4.6,27l-0.8,4L2,34.6l-1.3,3.8L0,42l3.6-0.1l3.9,0.7l3.9,0.2l3.9-0.3l3.9,0.2l3.9-0.1l3.9-0.4l3.9,0.2l2.8-0.4
			c-0.3-0.1-0.4-0.3-0.5-0.5c0.3,0,0.4,0,0.1-0.3c0.1,0.1,0.3,0.2,0.4,0.3c0.1,0.2,0.1,0.3,0,0.5l1.2-0.2l3.9,0.2l3.9-0.1l3.9,0.9
			l3.9-0.8l3.9,0.8l3.9-1.1l3.9,0.7l3.9-0.1l3.9,0l2.7-0.1c0,0,0-0.1,0-0.2c0,0.1,0,0.1,0,0.2l1.3-0.1l3.9,0.1l3.9,0.3l3.8,0.2
			c-0.1-0.2,0.1-0.7,0.2-0.7c0.1,0,0.1,0.5,0.1,0.7l0,0c0.1-0.1,0.6-0.5,0.6-0.2c-0.1,0.1-0.2,0.1-0.3,0.2l3.5-0.2l3.9,0l3.9,0.2
			l3.9,0.3l1.2-0.1c0.2-0.4,0.5-0.7,0.6-0.6c0.3-0.3,1.5-0.6,1.5-1.2c0,0.3,0.1,0.5-0.6,1h0c-0.5,0.6,0.4,0.4,0.5,0.7c0,0,0,0,0,0
			l0.7,0l3.9-0.4l0.1,0c-0.1-0.1-0.1-0.2,0.2-0.5c0.2,0.2,0.3,0.4,0.4,0.5l3.2,0.1l3.9-0.1l3.9-0.1l3.9,0.7l3.9-0.7l3.9-0.2l3.9,0.4
			l3.9-0.4l3.9,0.1l3.9,0.2l3.9,0.5l3.9-0.7l3.9,0.6l3.9-0.7l3.9,0.9l3.9-0.5l2.3,0.2c0.4-0.3,1.3-1,1.4-0.9
			c-0.4,0.5-0.8,0.6-1.3,0.9l1.6,0.1l3.9-0.1l3.9-0.3l3.9,0.1l3.9,0.4l3.9-0.7l3.9,0.1l3.9,0.2l3.9,0.5l3.9-0.9L216.4,42.2z
			 M229,37.2L229,37.2C229,37.2,229,37.2,229,37.2c0.2,0.2,0.7,0.7,0.6,1c-0.1,0.4-0.9-0.7-1-0.8C228.7,37.4,228.9,37.3,229,37.2
			C229,37.2,229,37.2,229,37.2z M226.3,31.6c0.1,0,0.3,0.1,0.4,0.1h0c-0.1,0.3,0,1-0.4,1.1C226,33,226.3,31.7,226.3,31.6z
			 M224.6,31.4L224.6,31.4c0.3,0.1,1,0.2,1,0.6c0.1,0.4-1.1-0.1-1.2-0.2C224.5,31.7,224.6,31.5,224.6,31.4z M221.9,39.6
			c0.2,0.7,0.2,1.1-0.1,1.6c0,0,0,0,0,0h0c0,0,0,0,0,0c-0.2-0.1-0.7,0-0.8-0.2C221.1,40.8,221.4,39.6,221.9,39.6z M229.7,1.7
			L229.7,1.7c0,0,0.1,0.1,0.1,0.1c0.3,0.6,0.7,1.2,0,1.5c-0.2-0.3,0.1-1.2,0-1.5C229.7,1.8,229.7,1.8,229.7,1.7z M222.7,7.6
			c-0.3-0.7,0.4-0.5,0.2-1h0c0-0.2-0.1-0.4-0.1-0.6C222.9,5.8,223.5,7.4,222.7,7.6z M225.7,9.8c0,0.2,0.2,0.3,0.2,0.4
			c-0.3-0.1-0.5-0.2-0.8-0.3c-0.4,0.3,0.3,0.6,0.3,0.9c-0.3-0.1-0.5-0.2-0.8-0.3c0.1,0,0.1-0.1,0.2,0c0,0-0.1-0.7-0.3-0.7h0
			c0.4-0.7,2-0.2,2.6,0C227,10.4,226.2,9.8,225.7,9.8z M226.5,6.9c0.2-0.5,0.7-1.3,0.6-1.9c-0.2-0.1-0.3,1.1-0.6,1h0
			C226.2,6.3,227,5,227,4.6c-0.4,0.8-0.7-1.1,0.3-0.3c0.2,0.3,0.5,0.5,0.8,0.5c-0.3,0.4-0.2,0.7,0.1,1c-0.2,0.4-0.3,1.4-0.7,0.6
			c0,0-0.6,0.8-0.7,1c-0.3-0.2-0.3-0.6-0.7-0.3c-0.1-0.2,0-0.4,0.2-0.5C226.3,6.7,226.4,6.8,226.5,6.9z M226,4.3
			c0,0.4,0.1,0.7,0.3,0.9c-0.5,0.1-0.6,0.4-0.6,0.8c-0.4,0.2-1.1,0.9-0.9,0c0,0-1,0.3-1.1,0.3c-0.2-0.3,0.2-0.6-0.3-0.7
			c0.1-0.2,0.2-0.3,0.4-0.3c-0.1,0.1-0.1,0.2-0.1,0.3c0.5-0.3,1.3-0.6,1.7-1c-0.1-0.2-0.9,0.7-1.1,0.4h0c-0.4,0.1,1-0.4,1.2-0.7
			C224.7,4.7,225.7,3.1,226,4.3z M224.9,3.8L224.9,3.8c0-0.2,0-0.4,0-0.6c0.3-0.2,0.5,1.6-0.4,1.6C224.4,4,225,4.4,224.9,3.8z
			 M221.1,4c0-0.2,0.1-0.4,0.3-0.4c-0.1,0.1-0.1,0.2,0,0.3c0.4-0.4,1.1-0.9,1.3-1.5c-0.2-0.1-0.6,0.9-0.9,0.7c-0.4,0.2,0.9-0.7,1-1
			c-0.7,0.6-0.2-1.3,0.4-0.2c0.1,0.3,0.3,0.6,0.5,0.7c0.1,0,0.2,0,0.3,0h0c-0.6,1-0.5,0.8,0.5,1.5c-0.1,0.2-0.3,0.4-0.4,0.6
			c-0.2-0.1-0.5-0.3-0.7-0.5c0.2,0.6-0.4,0.2-0.7,0.1c0,0,0-0.1,0-0.1c0-0.1-0.1-0.2-0.1-0.3c0,0-0.1,0-0.2,0.1
			c-0.5,0.6-0.3,0.5,0.3,1.3c-0.2,0.2-0.4,0.3-0.5,0.5c-0.2-0.2-0.4-0.4-0.5-0.7c0.1,0.6-0.5,0.1-0.7-0.1c0.2-0.2,0.3-0.5,0.6-0.7
			C221.4,4.1,221.4,3.9,221.1,4z M220.6,15.1c0.2-0.5,1.8,0,1.6,0.5C221.6,15.5,221.1,15.3,220.6,15.1L220.6,15.1z M9.2,29.8
			c0.6,0.1,1.4-0.1,2,0.1C11.1,30.5,9.1,30.3,9.2,29.8z M14.9,1.8C13.4,1.3,15.2,1.3,14.9,1.8L14.9,1.8z M14.7,6.5
			c-0.1,0.1-0.1,0.2-0.2,0.3C13.4,8,14.2,5.7,14.7,6.5z M13,15.6c0.3,0.1,0.5-0.2,0.5,0.3c-0.2,0-0.5,0-0.7,0
			C12.8,15.7,12.8,15.6,13,15.6z M13.3,21.5c-0.2-0.1-0.5-0.1-0.7-0.2c0-0.2,0.1-0.3,0.3-0.2C13.1,21.3,13.4,21,13.3,21.5z M14.2,32
			c-0.2,0.1-0.3-0.1-0.4-0.3c0-0.5,0.8-0.4,0.9,0C14.5,32,14.3,31.3,14.2,32z M13.3,24.8c0.6-0.1,1.2-0.6,1.9-0.6
			C15.4,24.7,13.5,25.3,13.3,24.8z M17,10.3c0,0.2-0.1,0.3-0.3,0.3c-0.2-0.2-0.2-0.5,0-0.8C16.9,9.9,17,10,17,10.3z M16.8,8.1
			c0.1,0.2,0.1,0.3,0,0.5c-0.3,0-0.5-0.2-0.5-0.6C16.4,7.8,16.6,7.8,16.8,8.1z M16.9,23c-0.3,0.2-0.3-0.6-0.6,0.2
			c-0.2,0-0.3-0.1-0.3-0.4C16.2,22.4,16.9,22.6,16.9,23z M15.5,27c-0.2-0.2,1-1.7,1.4-1.9C17,25.2,15.8,26.7,15.5,27z M16.4,27.8
			c-0.2-0.2,0.5-1.9,0.8-2.3C17.4,25.6,16.7,27.4,16.4,27.8z M16.6,24.9c0-0.2,0-0.3,0.2-0.3c0.3,0.1,0.5-0.3,0.5,0.2
			C17.1,24.9,16.8,24.9,16.6,24.9z M17.1,19.8c0.3-0.6,0.4-1.3,0.8-1.8C18.4,18.2,17.5,20,17.1,19.8z M17.5,37.8
			c0.4,0,0.6-0.2,0.6,0.3C18,38.1,17.4,38.5,17.5,37.8z M207.5,19.6c-0.4,0.2-0.1,0.6-0.7,0.3c0,0.3,0.4,0.6,0.3,0.9
			c0-0.1-1.1-0.6-0.4-1.2C207.2,20,207,19.1,207.5,19.6z M199.8,9.8L199.8,9.8c0-0.3,0.2-0.4,0.4-0.3c0.1,0-0.5,1.3-0.5,1.4
			c-0.1-0.1-0.7-1.1-0.4-1c0.1,0.1,0.2,0.2,0.4,0.2C199.7,10,199.7,9.9,199.8,9.8z M198.4,1.9L198.4,1.9
			C198.4,1.9,198.4,1.9,198.4,1.9c0.3,0.2,0.7-0.8,1-0.3c0,0.1-0.4,1-0.5,1c0-0.2,0.1-0.5,0.1-0.7C199,2,198.1,2.7,198.4,1.9
			C198.4,1.9,198.4,1.9,198.4,1.9z M197.9,4.9L197.9,4.9C197.9,4.9,197.9,4.9,197.9,4.9c0.3,0.2,0.6-0.8,1-0.3
			c0,0.1-0.3,1.1-0.4,1.1c0-0.2,0-0.5,0.1-0.7C198.5,4.9,197.7,5.6,197.9,4.9C197.9,4.9,197.9,4.9,197.9,4.9z M196.6,1.8L196.6,1.8
			c-0.2-0.1-0.1-0.2,0.2-0.3c0.3-0.1-0.4,1.2,0.3,0.2c-0.2,0.3-0.4,0.6-0.7,0.9C196.4,2.6,196.8,1.8,196.6,1.8z M195.5,1.6
			c0.1-0.1,0.6,0.1,0.8,0h0c0.2,0.2,0,0.8-0.1,1c0,0-0.1-0.1-0.2-0.2c0.1,0.2,0.2,0.5,0.2,0.6c0,0,0,0,0,0h0c0,0,0,0,0,0
			c0-0.1-0.2-0.4-0.4-0.8C195.5,2,195.3,1.7,195.5,1.6z M196.1,9.3L196.1,9.3c0-0.1-0.6-1.6-0.4-1.3C195.9,8.1,196.3,9.1,196.1,9.3z
			 M196,26.3c0,0.9-0.3,0.2-0.3,0.8h0C195.2,27.1,195.3,26.1,196,26.3z M196.1,22.1c0.4-0.2,0.4,0.2,0.6,0.4c0,0,0,0,0,0
			c0.1,0.1,0,0.3,0,0.5c-0.2,0-0.6,0-0.6-0.3h0c0.5,0,0.4-0.1,0.3-0.2c-0.1,0-0.3,0-0.3-0.1h0C196.6,22.2,195.9,22.4,196.1,22.1z
			 M194.3,3.9L194.3,3.9c-0.3,0.1-0.8-1.2-0.9-1.2C193.8,2.7,194.1,3.7,194.3,3.9z M192.3,16.9c0-0.2,0-0.3,0-0.5c0,0,0,0,0,0h0
			c0,0,0,0,0,0c0.2,0,0.2,0.7,0.2,0.8c-0.4,0-0.7-0.3-0.8-0.6C191.8,16.6,192.2,17.1,192.3,16.9z M191.6,3.2L191.6,3.2
			c-0.3,0-0.6-1.3-0.7-1.3C191.4,1.9,191.5,2.9,191.6,3.2z M186.4,10L186.4,10c-0.3,0-0.4-1.4-0.5-1.4C186.3,8.7,186.3,9.7,186.4,10
			z M180,9.2c-0.1,0.4,0,0.1,0.2,0.5c-0.3,0.1-0.5,0.3-0.8,0.4h0C178.9,9.1,180,9.1,180,9.2z M166.8,13.5c0.2-0.3,0.4-0.2,0.6-0.6
			C167.8,13.3,167.3,13.9,166.8,13.5L166.8,13.5z M165.9,1.4c0,0.2,0.1,0.4,0.3,0.5c-0.7,0.3-0.4,0-0.8-0.2h0
			C165.6,1.6,165.7,1.5,165.9,1.4z M166.5,9.5c-0.5,0.6-0.3,0.2-0.9,0.1h0c0.1-0.1,0.2-0.3,0.3-0.4C166.1,9.4,166.3,9.5,166.5,9.5z
			 M164.1,6.3C164.4,4.9,165.6,7.5,164.1,6.3L164.1,6.3z M164.2,12.6c0.5,0.1,0.5,0.9-0.1,0.9c0,0,0,0,0,0h0c0,0,0,0,0,0
			C164.1,13.1,164.3,13,164.2,12.6z M164.4,8.6c0.1,0.3-0.2,1.1-0.6,0.6C163.6,8.9,164.2,8.2,164.4,8.6z M163.6,1.7L163.6,1.7
			c0.1,0.4-0.3,1-0.6,0.6C162.8,1.8,163.4,1.2,163.6,1.7z M163.5,9.5c0.2,0.5-0.5,0.9-0.8,0.3C163,9.6,163.1,9.8,163.5,9.5z
			 M160.9,2.5c0.2-0.1,0.3-0.1,0.5-0.2c0,0.2,0,0.4,0.3,0.5C160.9,3,161.3,2.8,160.9,2.5L160.9,2.5z M160,11
			c0.5-0.6,0.9,0.7,0.5,0.6c0.1,0.1,0.1,0.3,0.2,0.3c-0.1,0.4-0.7,0.5-0.5-0.4h0c0,0,0,0,0,0c0,0,0,0,0,0c-0.1,0-0.3,0.1-0.4,0.1
			C159.6,11.1,159.8,11,160,11z M155.9,7.4L155.9,7.4c0.3,0.1-0.2,0.5,0.1,0.6C155.6,8.3,155.1,7.9,155.9,7.4z M155.3,8.9
			c0.3-0.1,0.1,0.5,0.4,0.4C155.5,9.7,154.9,9.7,155.3,8.9L155.3,8.9z M153.6,5.2c0.3,0.3,0.5,0.6,0.7,0.9h0c0,0.1,0,0.2,0,0.3
			C154.1,6.2,153.3,5.7,153.6,5.2z M150.6,5.6c0,0,0.1-0.1,0.1-0.1c0,0,0-0.1,0-0.1c-0.1-0.2-0.1-0.3,0-0.5c0-0.2-0.1-0.3-0.1-0.5
			c-0.1-0.1-0.1-0.1-0.1-0.2c0,0.1,0,0.1,0.1,0.2c0,0,0.1,0.1,0.1,0.1c0-0.1-0.1-0.3-0.1-0.4c-0.1-0.1-0.1-0.1-0.1-0.2
			c0,0.1,0,0.1,0.1,0.2c0.1,0.1,0.3,0.1,0.4,0.2c0,0,0-0.1,0.1-0.1c0,0,0,0.1,0,0.1c0.1,0,0.1,0,0.2,0c0,0,0,0,0,0
			c0.1,0.1,0.1,0.1,0,0c0.1,0.3,0,0.4,0.4,0.4c0,0.2,0,0.3,0,0.3c0,0.2,0,0.3-0.1,0.3c0,0,0.1,0.1,0.1,0.1c-0.1,0.3-0.3,0.3-0.4,0.2
			c0,0.1,0.1,0.1,0.1,0.2h0c-0.1,0.1-0.1,0.2-0.1,0.3c-0.1-0.1-0.2-0.3-0.3-0.4c0,0.1-0.1,0.2-0.2,0.1c0,0,0-0.1-0.1-0.1
			c-0.1,0.1-0.2,0.1-0.2,0C150.4,5.7,150.5,5.6,150.6,5.6L150.6,5.6z M151.3,24.6L151.3,24.6C151.3,24.6,151.3,24.6,151.3,24.6
			c-0.4-0.8-0.1-2-0.8-2.5C151.4,21.9,151.8,24.5,151.3,24.6C151.3,24.6,151.3,24.6,151.3,24.6z M143.5,3.4L143.5,3.4
			c0.8-1.2,0.8,0.7-0.1,0.3C143,4,142.3,5,142,4.7C142.4,4.4,143.7,3.2,143.5,3.4z M137.3,7.6L137.3,7.6c0.9-1.1,0.7,0.8-0.1,0.3
			c-0.4,0.3-1.2,1.2-1.5,0.9C136.2,8.5,137.6,7.4,137.3,7.6z M130.3,6.4c-0.2,0-0.1,2-0.1,2.3c-0.1-0.3-0.1-0.6-0.2-0.8
			c0,0.2,0,0.4,0,0.5c0,0,0,0,0,0h0c0,0,0,0,0,0C129.8,8.1,130.1,6.4,130.3,6.4z M128.6,8.8c-0.2,0.1,0.8,1.8,1,2.1
			c-0.2-0.2-0.4-0.4-0.6-0.6c0.1,0.2,0.2,0.4,0.3,0.5l0,0C129,10.6,128.4,8.8,128.6,8.8z M126.4,11.2c0.1-0.5,1.8-1.4,1.9-1.4
			C128.8,10.1,126.6,11.1,126.4,11.2C126.4,11.2,126.4,11.2,126.4,11.2L126.4,11.2C126.4,11.2,126.4,11.2,126.4,11.2z M123.2,1.5
			c-0.3,0-0.6-0.1-0.8-0.1c0.2,0.1,0.3,0.2,0.5,0.2h0c-0.3,0.1-1.9-0.9-1.8-1C121,0.7,122.9,1.4,123.2,1.5z M118.7,3.7
			c-0.1-0.1-0.2-0.1-0.4-0.2c0.4-0.2,1.1-0.3,1.4,0.1c-0.2-0.2-1.3,0.4-1.5,0.5c0,0,0,0,0,0h0c0,0,0,0,0,0
			C118.1,3.9,118.8,3.7,118.7,3.7z M117.7,7.4c-0.1-0.1-0.1-0.2-0.2-0.2c0,0,0,0,0,0c-0.1,0.1-0.2,0.4-0.3,0.8
			c0-0.1-0.1-0.3-0.1-0.4h0c0.1-0.1,0.2-0.2,0.5-0.4c0,0,0,0,0,0c0.5-0.4,1.2-0.8,0.5-0.1C118.4,6.7,117.6,7.2,117.7,7.4z
			 M116.3,1.1c0.1-0.3,0.6,0.2,0.6,0.2c0-0.1,0-0.3,0-0.4c0.3,0.2,0.8,0.7,0.7,1.2C117.6,1.8,116.5,1.2,116.3,1.1L116.3,1.1z
			 M115.3,3c-0.1-0.1-0.2-0.2-0.3-0.3c0.4,0,1.1,0,1.3,0.4c-0.1-0.2-1.4,0.1-1.6,0.1h0C114.6,3,115.3,3,115.3,3z M115.2,12.3
			c0,0.5-0.6,0-0.9,0.3c0-0.2-0.1-0.3-0.3-0.2h0C113.9,11.3,115.3,11.2,115.2,12.3z M113.7,4.9c-0.4-0.1-0.7-0.2-1.1-0.3h0
			C112.8,4.1,113.6,5,113.7,4.9z M113.2,5.4c-1.2,0.1-1.3-0.4-0.9-0.5C113.1,4.9,112.9,5.2,113.2,5.4L113.2,5.4z M112.1,2.5
			L112.1,2.5c0.2-0.4-0.2-0.4-0.1-0.9c0.3,0.2,0.6,0,0.6,0.5c0-0.1,0.1-0.1,0.1-0.2c0.1-0.2,0.3-0.6,0.3-0.6c0,0.1,0,0.2-0.1,0.3
			c-0.1,0-0.2,0.1-0.3,0.3c-0.1,0.1-0.1,0.2-0.1,0.2c0,0,0,0,0,0c-0.1,0.3-0.2,0.6-0.2,0.8c0-0.6-0.2-0.3-0.4,0.1c0,0,0,0.1,0,0
			c0,0,0,0,0,0c-0.1-0.1-0.4-0.5-0.4-0.4C111.8,1.9,111.7,2.7,112.1,2.5z M110.6,6c0-0.7,0.1-1.4,0.3-0.5c-0.1-0.5-0.2,0.4,0,0.5
			C110.7,6,110.6,6,110.6,6c0,0,0,0.1,0,0.1c0,0.1,0.2,0.3,0.3,0.6c0-0.1,0-0.2,0-0.3h0c0.1,0,0.3-0.1,0.6-0.2c0,0,0,0,0,0
			c0.6-0.1,1.2-0.2,0.8,0c0.1,0,0.1,0.3,0.3,0.2h-0.1c0-0.2-0.1-0.3-0.2-0.5c0,0-0.1-0.1-0.1-0.1h0c0,0,0.1-0.1,0.1-0.1
			c0-0.1,0-0.1,0-0.2c0.3,0.2,0.6,0,0.6,0.4c0-0.1,0.1-0.2,0.1-0.3c0.1-0.3,0.2-0.6,0.3-0.5c0,0.1,0,0.2,0,0.3c0,0,0,0,0,0
			c0,0,0,0,0,0h0c0,0,0,0,0,0c0.2,0.5,0.4,1.1,0.6,1.7c-0.4,0.1-0.9-1.1-0.7-1.5c-0.1,0-0.1,0.1-0.2,0.2c-0.1,0.1-0.1,0.2-0.1,0.3
			c0,0,0,0,0,0c0,0.1-0.1,0.2-0.1,0.3c0.1,0.1,0.2,0.3,0.2,0.3c-0.1-0.1-0.2-0.1-0.2-0.2c0,0.2,0,0.4,0,0.5c0-0.6-0.3-0.3-0.4,0.2
			c0,0,0,0.1,0,0c0,0,0,0,0,0c0,0,0,0,0,0c0,0.1-0.1,0.2-0.1,0.4c0,0,0,0,0,0h0c0,0,0,0,0,0c-0.4-0.6-0.5-1-0.3-1
			c-0.2,0-0.5,0.1-0.5,0.2c0-0.2,0-0.2-0.1-0.2c0,0,0,0,0,0c-0.1,0-0.3,0.2-0.7,0.5c0,0,0,0,0,0.1c0,0,0,0-0.1,0c0,0,0,0,0,0
			c0,0,0,0,0,0c-0.1,0-0.2-0.1-0.3-0.1h0c0-0.1,0-0.3,0-0.6C110.6,6.1,110.6,6.1,110.6,6z M111.5,10.9L111.5,10.9
			C111.5,10.9,111.5,10.9,111.5,10.9c-0.3-1,1-1.4,1.1-0.3c0.1,0.5-0.6,0.1-0.8,0.5C111.8,10.9,111.7,10.8,111.5,10.9
			C111.5,10.9,111.5,10.9,111.5,10.9z M108.6,3.4c0.3,0.2,0.1,0.5,0,0.9c0,0,0,0,0,0h0c0,0,0,0,0,0c-0.1,0-0.3-0.1-0.4-0.1
			C108.3,3.9,108.5,3.8,108.6,3.4z M108.2,2.6c-0.4-0.1-0.7-0.3-1.1-0.4h0C107.4,1.7,108.1,2.6,108.2,2.6z M106.7,5.2L106.7,5.2
			c0.1,0.6,0.2,1.2,0.2,1.8C106.5,7,106.3,5.3,106.7,5.2z M105.4,5.9C105.4,5.9,105.4,5.9,105.4,5.9L105.4,5.9
			C105.4,5.9,105.4,5.9,105.4,5.9c0.3,0.5,0.5,1.1,0.8,1.6C105.8,7.7,105.1,6.2,105.4,5.9z M105,28.1L105,28.1
			C105,28.1,105,28.1,105,28.1c-0.2-0.4,0.2-0.7,0.5-0.8c0.1,0.1,0.1,0.3,0.2,0.4C105.4,27.8,105.2,27.9,105,28.1
			C105,28.1,105,28.1,105,28.1z M104.5,9c0-0.4,0.7-0.4,0.7,0h0C105,9,104.8,9,104.5,9z M105.1,22.1
			C105.1,22.1,105.1,22.1,105.1,22.1L105.1,22.1C105.1,22.1,105.1,22.1,105.1,22.1c-0.1-0.5,0.3-0.6,0.7-0.7c0,0.2,0.1,0.3,0.1,0.5
			C105.7,21.9,105.4,21.9,105.1,22.1z M105.8,7.4L105.8,7.4c0.1,0.1-0.4,0.8-0.5,1C104.4,7.8,105,7.4,105.8,7.4z M105,4.3
			C105,4.3,105,4.3,105,4.3L105,4.3C105.1,4.3,105,4.3,105,4.3c0.2,0.1-0.1,0.9-0.1,1.1C104,5.2,104.3,4.6,105,4.3z M97.3,8.7
			c0.1,0.6-1.3,0.2-1.1,0h0C96.8,8.6,96.6,8.9,97.3,8.7z M93.5,1.7c0.2-0.1,0.9-1.3,1.1-0.9c-0.1-0.1-0.5,0.6-0.5,0.6
			c0.1,0.4,1.1,0.6,1.4,0.3c0.1,0,0.9,0.6,0.9,0.7c-0.2,0-0.4,0-0.6,0c-0.2,0.3,0.5,0.3,0.3,0.6c-1.5,0.1,0,0-0.3,0.2
			c-0.3,0-0.5-0.1-0.6-0.3C95.5,3,95.7,3,95.8,2.8c-0.3-0.9-1,0.5-1.1-0.5h0C94.6,2.2,93.3,1.8,93.5,1.7z M92.9,10.4L92.9,10.4
			c0.1,0.1,0.1,0.2,0.2,0.3c-0.3,0.2-0.5,0.5-0.9,0.8c0.5-0.7-0.3-0.5-0.6-0.3C91.4,10.6,92.7,10.5,92.9,10.4z M87.5,20.6
			c0.3-0.2,0.1-0.7,0.6-0.6h0C89.1,20.6,88.2,20.9,87.5,20.6z M86.6,17.7c0.7-0.6,0.5-1.2,1-1.7h0C88.2,16.4,87.3,17.6,86.6,17.7z
			 M86.3,11.6c0.4,0.1,1.7,0.3,1.5,0.9c-0.3-0.1-1.3-0.7-1.5-0.2h0c-0.1,0.1-0.4,0.7-0.3,0.8C85.8,12.8,86.2,11.8,86.3,11.6z
			 M86.9,16.1c0.6,0.5-0.5,1.5-1.2,1.5C86.4,17.2,86.4,16.6,86.9,16.1z M80.5,5.7C80.7,6,81.7,7,81.2,7.3C81,7,80.6,6,80.1,6.2
			c-0.1,0-0.7,0.4-0.7,0.4C79.4,6.4,80.3,5.9,80.5,5.7z M79.8,9.6L79.8,9.6c0.1,0,0.2,0,0.3,0c0,0.4,0,0.7-0.1,1.1
			C80,10,79.5,10.7,79.5,11C78.9,11,79.7,10,79.8,9.6z M75.3,6.1c0.3,0.2,1.6,0.7,1.3,1.2c-0.3-0.2-1.1-1-1.4-0.6h0
			c-0.1,0-0.5,0.6-0.5,0.7C74.6,7.1,75.2,6.3,75.3,6.1z M74.5,2.6c-0.3,0.5,0.1,0.6-0.2,1C74.4,3.5,73.1,2.8,74.5,2.6z M72.8,5.5
			c0.7,0.4,0.6,0.1,1.1,0.3c-0.4,0.3,0.3,0.5,0.3,0.5C74,6.5,72.4,6,72.8,5.5z M70.4,2.9c0.7,0.3,0.6,0,1.1,0.2
			c-0.3,0.4,0.3,0.5,0.3,0.5C71.6,3.8,69.9,3.5,70.4,2.9z M70.1,12.8c0.1,0-0.2,0.3-0.1,0.3c0.4-0.1,0.7-0.3,1-0.4
			c0.2,0.6-0.4,0.6-0.9,0.8v0C69.9,13.2,69.1,12.9,70.1,12.8z M69.6,6c-0.4-0.4-0.2,1.6-0.5,0.6C69.4,6.6,69.3,5,69.6,6z M68.1,4.9
			c0.5,0,0.7-0.1,1.1-0.2c0.1,0.7-1,0.9-1.6,1.1C67.8,5.3,68.1,5.5,68.1,4.9z M67.4,23.8c0.2,0,0.4,0.1,0.6,0.2
			c0.3,0.3,0.4,0.6,0.3,0.9C67.1,24.5,68.1,24.4,67.4,23.8z M69.1,27.1c-0.1,0-1.4-0.1-1.4,0C67.6,26.4,68.9,26.8,69.1,27.1z
			 M66.2,7.2c0.1,0.1-0.4,0-0.3,0.1c0.3,0.2,0.7,0.4,1,0.5c-0.3,0.5-0.7,0.1-1.2-0.2C65.8,7.3,65.5,6.5,66.2,7.2z M64.9,7.4
			c0.4,0.2,0.7,0.4,1,0.6c-0.4,0.6-1.3,0-1.9-0.2C64.4,7.5,64.5,7.8,64.9,7.4z M62.6,4.6c-0.4-0.4-0.2,1.6-0.5,0.6
			C62.4,5.3,62.3,3.6,62.6,4.6z M62.1,12.2c0.2,0.2,1-1.3,0.8-0.3C62.8,11.4,61.9,13.2,62.1,12.2z M58.3,3.9c0.5-0.1,0,1.3,0.8,1.2
			c-0.1,0.4-0.2,1.7-0.4,1.7c0-0.1-0.8,0.3-0.6-1.2c0.3-0.2,0.2,0.4,0.5,0.3c0.1-0.3,0-0.7-0.1-1c-0.2-0.1-0.5,0.6-0.6,0.7
			C57.9,4.9,58.1,4.9,58.3,3.9z M56.3,0.6c0.5,0-0.1,1.3,0.7,1.2c-0.1,0.4-0.4,1.7-0.5,1.6c0-0.1-0.8,0.2-0.6-1.2
			c0.3-0.2,0.2,0.4,0.5,0.4c0.1-0.3,0.1-0.7,0-1c-0.2-0.1-0.5,0.6-0.7,0.6C55.8,1.5,55.9,1.6,56.3,0.6z M44.8,2.7
			C45,2.8,45.1,3,45,3.3c-0.5-0.7-0.1,0.1-0.5,0C44.1,2.7,44.8,3.1,44.8,2.7z M41.1,9.8c0.2,0.1,0.3,0.3,0.4,0.5
			c-0.7-0.4-0.1,0.2-0.4,0.2C40.4,10,41.2,10.2,41.1,9.8z M39.2,14.3c0.7,0.1,0.1,0.5,0.4,0.8c0.1,1.4,0,0.5-0.7,1
			c-0.2,0.1-0.3,0.1-0.3-0.1c0.2,0,0.4,0,0.6-0.1c-0.2-0.1-0.3-0.1-0.5-0.2c-0.1,0-0.2,0,0,0c0,0,0,0,0,0c0.2,0,0.5,0,0.7,0
			C39.3,15.4,39.1,14.6,39.2,14.3z M38.5,4.4C39,4.4,38.5,7.1,38,7C38.2,6.1,38.3,5.2,38.5,4.4z M38.2,15.5c0.6,1.2,0.2,0.4-0.3,1.2
			c-0.2,0.2-0.3,0.2-0.3,0c0.3-0.1,0.5-0.3,0.6-0.6c0,0-0.6-0.9-0.7-1.3C38.2,14.7,37.8,15.3,38.2,15.5z M37.6,13.1
			c0,0.2,0,0.4-0.1,0.6c-0.1-0.2-0.2-0.3-0.3-0.1c0,0.2,0,0.8,0,1c-0.1,0-0.1-0.4-0.2,0c-0.1-0.2,0.2-0.9-0.1-0.8l0,0
			c0-0.1,0-0.2,0-0.2c-0.1-0.1-0.1-0.1-0.2,0c0,0.2,0,0.8,0,1c-0.1,0-0.1-0.4-0.2,0c-0.1-0.2,0.2-0.9-0.1-0.8h0c0-0.6,0-0.6,0.7-0.6
			c0,0,0,0,0,0.1C37.1,13,37.3,13,37.6,13.1z M36.5,6c0.7,0.1,0.1,0.5,0.4,0.8c0.1,1.4,0,0.5-0.7,1h0C35.9,8,35.8,8,35.8,7.8
			c0.3,0,0.6-0.1,0.8-0.3C36.6,7.5,36.4,6.4,36.5,6z M26.3,9.5c0.1-0.2,0.5-0.7,0.9-0.6c0.2,0.2,0.2,0.4,0,0.7
			c-0.2-0.1-0.3-0.2-0.5-0.2c-0.1,0.2-0.1,0.4-0.2,0.6C26.3,9.7,25.7,10.4,26.3,9.5z M25.7,9.9c0,0.1,0.1,0.2,0.1,0.4
			C25.7,11.9,24.7,9.7,25.7,9.9z M23.3,25.5c0.2,0.1-0.5,1.9-0.8,2.3C22.3,27.5,23,25.8,23.3,25.5z M22.4,19.6
			c-0.2,0.3-0.5-0.5-0.5,0.3c-0.2,0.1-0.3,0-0.4-0.3h0C21.6,19.2,22.3,19.2,22.4,19.6z M23.2,38.4c0.2-0.1-0.6-0.1-0.7,0l0,0
			c-1.1-0.1,1.2-0.4,0.9-0.4c-0.7-0.2,0.4-0.2,0.6-0.2c0,0,0,0,0,0c0,0,0,0,0,0C23.9,38.5,23.6,38.2,23.2,38.4z M23.4,36
			c-0.7,0.1,0.3-0.3,0.5-0.4c0,0,0,0,0,0c0,0,0,0,0,0c0.3,0.6-0.2,0.4-0.5,0.7c0.2-0.2-0.6,0.1-0.6,0.3C21.6,36.9,23.7,35.9,23.4,36
			z M25.6,35.9c0,0.6-0.3,0.3-0.7,0.5c0.2-0.1-0.6-0.1-0.7,0v0c-1.1-0.1,1.2-0.4,0.9-0.4C24.3,35.9,25.4,35.9,25.6,35.9
			C25.6,35.9,25.6,35.9,25.6,35.9C25.6,35.9,25.6,35.9,25.6,35.9z M32.7,38.2c-0.2-0.4-1.2-0.1-1.4-0.6c0.1-0.1,1-0.3,1.2-0.3
			C32.5,37.5,32.8,38.1,32.7,38.2z M35,38c0-0.4,0.1-0.9,0.1-1.3c1,0.3,0.3-0.2,0.6-0.6C36.2,36.2,35.8,38.1,35,38z M34.7,23
			c0.2-0.2,0.7,0,0.8,0.1C34.9,23.6,35.2,23.6,34.7,23z M37.1,33.7c0.1-0.4,0.1-0.9,0.2-1.3c1,0.4,0.3-0.2,0.7-0.6
			C38.5,32,37.9,33.9,37.1,33.7z M39.4,38.8c-0.3,0.3,0.4-0.6,0.9,0.2C39.9,39.3,39.6,39.1,39.4,38.8z M42.6,29.2
			c-0.3,0.5-0.3,1,0.1,1.5c0.2,0.4,0.4,0.7,0.3,1.2c-0.1,0.2-0.2,0.5-0.4,0.5c-0.9,0.3-1.7,0.3-2.5-0.2c0.3,0.5,0.3,1.7-0.3,1.8
			c-0.1-0.4-0.2-0.8-0.4-1.2c1.1-0.1,0.2-0.3,0.4-0.8c0,0,0.1,0,0.1,0c-0.2-0.2-0.3-0.4-0.4-0.7c-0.1-0.4-0.3-0.8-0.5-1.2
			c-0.5-1-1.2-2-1.3-3.2c0-0.2-0.1-0.5-0.2-0.6c-0.5-0.5-0.6-1.2-0.8-1.8c-0.1-0.3-0.2-0.5-0.4-0.7c-0.5-0.4-0.8-0.9-0.7-1.5
			c0.1-0.4-0.1-0.8-0.3-1.1c-0.4-0.7-0.6-1.4-1-2.1c-0.1-0.3-0.3-0.6-0.4-0.9c-0.2-0.3-0.5-0.5-0.9-0.4c-0.4,0.1-0.7,0.3-0.8,0.7
			c-0.4,1.5-0.8,3.1-1.2,4.6c-0.1,0.6-0.4,1.1-0.8,1.5c-0.3,0.3-0.4,0.6-0.4,1c0,0.5,0,1,0,1.5c0,0.5-0.1,0.9-0.4,1.2
			c-1.4,1.4,2.9,1.9,3.6,2c1,0.2,1.3,1.6,0.1,1.6c-0.2,0-3.7,0-4,0c-0.9,0-8.3,0-9.3,0c-0.6,0-1.1-0.1-1.1-1c0-0.4,0.7-0.7,1.2-0.7
			c0.4,0,0.8,0,1.3,0.1c0.7,0,4.5-0.2,4.8-0.8c0.2-0.3,0.5-0.8,0.7-1c0.3-0.4,1.4-3.2,1.7-4.1c0.6-1.8,1.2-3.7,1.8-5.5
			c0.1-0.5,0.1-1,0.2-1.5c0.1-0.3,0.2-0.7,0.4-1c0.1-0.2,0.2-0.4,0.3-0.6c0.3-0.9-0.1-1.5-1-1.7c-1-0.2-1.7-0.9-2.3-1.6
			c-0.4-0.4-0.2-0.9,0.4-1c1.2-0.3,2.3-0.1,3.4,0.5c0.3,0.2,0.7,0.3,1,0.3c0.8,0,1.4,0.2,1.8,0.8c0.2-0.6,0.2-0.5,0.9-0.3
			c-0.1,0.2-0.2,0.3-0.3,0.5c0-0.3-0.1-0.3-0.3-0.2c0,0.1-0.1,0.1-0.1,0.3c0,0,0,0.1,0.1,0.1c0.6,0.9,1.2,1.8,1.5,2.9
			c0.2,0.7,0.7,1.3,1.1,1.9c0.4,0.6,0.7,1.2,1,1.8c0.4,0.7,0.7,1.5,1,2.2c0.3,0.7,0.5,1.4,0.8,2.1c0.3,0.8,0.8,1.5,1.5,2
			c0.5,0.4,0.7,0.3,0.9-0.3c0.4-1.2,0.8-2.4,1.2-3.7c0-0.1,0-0.2,0.1-0.3c0.7-1,0.8-2.1,0.9-3.3c0-0.2,0.1-0.5,0.2-0.7c0,0,0,0,0,0
			c0,0,0,0,0,0c0,0,0,0,0,0c0.1-0.3,0.2-0.6,0.3-0.9c0.1-0.4,0.2-0.8,0.3-1.2c0.1-0.2,0.2-0.5,0.2-0.7c-0.1,0-0.1,0-0.2,0
			c-0.1,0-0.2,0-0.1,0c0,0,0,0,0.1,0c0.1,0,0.1,0,0.2-0.1c0.1-0.5,0-1.1-0.4-1.2c-1.1-0.2-1.8-0.4-2.5-1.2c-0.2-0.2-0.4-0.5-0.2-0.8
			c0.2-0.3,0.6-0.3,0.9-0.1c0.7,0.3,1.5-0.1,2.3-0.1c0.4,0,0.8,0,1.2,0c1.5,0.1,3,0.1,4.5,0.1c0-0.2,0-0.5,0.1-0.6
			c0.4-1,0.2-1.5,1.5-1.1c-0.3,0.6-0.6-0.1-1,0c-0.3,0.4-0.4,1.1-0.5,1.6c0,0,0,0.1,0,0.1c0.4,0,0.9,0,1.3,0c0-0.2,0-0.3,0.1-0.4
			c0-0.1,0-0.2,0-0.2c0,0,0,0.1,0,0.2c0,0.1,0,0.3,0.1,0.4c0.1,0,0.2,0,0.3,0c0-0.2-0.2-0.5-0.2-0.7c0.5,0,0.7,0.3,0.7,0.7
			c1.7,0,3.4,0,5.1,0c1,0,1,1.6,0,1.6c-2.1,0-4.1,0.1-6.2,0.1c0,0.1,0,0.2,0,0.2c0.1,0.1,0.3,0.1,0.4-0.1c0.1,0,0,0.8-0.3,0.4
			c-0.1-0.1-0.1-0.3-0.1-0.6c-0.3,0-0.5,0-0.8,0c0,0-0.1,0-0.1,0.1c-0.1,0.5,0.2,1.2,0.4,1.6c0.1,0.1,0.1,0.2,0.2,0.3
			c0.1,0.1,0.1,0.2,0.2,0.2c0.3,0.2,0.4-0.6,0.6-0.9c0.2-0.4,1,1.3,1.1,1.5c0.2,0,0.3-0.1,0.3-0.3c0-0.1,0.4,0.7-0.1,0.5
			c-0.4-0.1-0.6-1-0.8-1.3c-0.3,0.9-0.7,0.8-1.1,0.4c-0.1,0-0.1-0.1-0.2-0.2c-0.2-0.3-0.3-0.6-0.4-0.8c-0.1-0.6-0.3-1-0.2-1.2
			c-0.7,0-1.4,0-2.1,0.2c-0.1,0-0.1,0-0.2,0c-0.2,0.1-0.4,0.1-0.5,0.2c-0.3,0.4-0.9,2-1.2,2.4c-0.5,0.8-0.9,1.6-1.1,2.4
			c-0.1,0.4-0.4,0.7-0.6,1.1c-0.1,0.2-0.1,0.4-0.2,0.6c-0.1,0.3-0.1,0.6-0.2,0.8c-0.4,0.8-0.8,1.5-1.2,2.2c-0.1,0.1-0.1,0.2-0.1,0.3
			c0,0.7-0.2,1.3-0.4,1.9c-0.3,0.8-0.5,1.6-0.8,2.4C43,28.6,42.8,28.9,42.6,29.2z M50.3,14.9c0-0.1,0-0.1,0-0.2
			C50.2,14.8,50.3,14.8,50.3,14.9c0.1,0.3,0.2,0.9,0.4,0.8c0.3-0.3-0.1-0.8-0.2-1c1.2-0.2,1.1,2.2-0.2,1.6
			C50.2,16.1,50.3,15.3,50.3,14.9z M48.6,17.6c-0.2-0.8-0.2,0-0.4-0.2c-0.1-0.7,0.3-0.1,0.5-0.4C48.8,17.3,48.7,17.5,48.6,17.6z
			 M43.8,29.9c-0.2-0.2-0.3-0.4-0.5-0.6c0.4-0.3,0.4,0,0.6,0.3C44,29.7,43.9,29.8,43.8,29.9z M45.1,39.3c0.2-0.5,0.2-1.1,0.7-0.9
			C45.6,38.9,45.7,39.6,45.1,39.3z M46.6,38.3c0.1,0.1,0.3,0.1,0.4,0C47.5,38.3,45.6,39.8,46.6,38.3z M46.2,33.1
			c0.5,0,0.3,0.2,0.4,0.6c0,0.1-0.1,0.2-0.3,0.2C46.3,33.6,46.3,33.4,46.2,33.1z M48,37.2c-0.2,0.4-0.5,0.4-0.9,0.1
			C46.9,37.7,47.2,36.7,48,37.2z M47.7,39.5c-0.4,0,0.6-0.3,0.6,0.7C47.8,40.2,47.7,39.9,47.7,39.5z M58.8,38.9
			C58.8,38.9,58.8,38.9,58.8,38.9c-0.1-0.3-0.3-0.6-0.1-0.9c0.1,0.5,0.4-0.1,0.5,0.5C59.3,38.5,58.9,38.8,58.8,38.9
			C58.8,38.9,58.8,38.9,58.8,38.9z M58.7,31.9c-0.5,0-1-0.2-1.4-0.4c-0.5-0.2-0.5-0.7,0-0.9c0.5-0.2,1.1-0.3,1.7-0.3
			c0.7,0,1.2-0.2,1.4-0.8c0.3-0.5,0.6-1.2,0.8-1.8c0.1-0.3,0.2-0.6,0.5-0.8c0.3-0.2,0.5-0.3,0.7-0.6c0.2-0.2,0.4-0.6,0.5-0.9
			c0.1-0.4-0.1-0.7-0.5-0.8c-0.1,0-0.3-0.1-0.5-0.1c-1,0-2.1,0-3.1,0c-0.1,0-0.3,0-0.4,0.1c-0.9,0.5-1.7,1-2.3,2
			c-0.4,0.7-0.8,1.3-1.3,1.9c-0.1,0.2-0.4,0.2-0.6,0.3c-0.5,0.2-0.7,0.8-0.5,1.3c0.1,0.3,0.3,0.3,0.5,0.6c0.2,0.4,0.2,0.6,0,1
			c-0.1,0.3-2,0.1-2.9,0.1c-1.2,0-5.4,0-6,0c-1.2,0-1.4,0-1.3-0.7c0-0.4,0.1-0.4,0.2-0.4c0.7-0.1,1.4-0.2,2.1-0.3c0,0,0-0.1,0-0.1
			c0.2,0,0.3,0,0.4,0.1c0.6,0,1.2,0,1.7,0c0.6,0,1.1-0.2,1.4-0.7c0.7-0.9,1.5-1.9,2.3-2.6c1-0.9,1.8-1.8,2.7-2.7c0,0,0,0,0,0
			c1.8-1.3,3.3-3,4.9-4.5c-0.4,0-1.2,0-1,0.3c0,0,0,0,0.1-0.1c0,0,0.2,0.7-0.2,0.5c-0.1-0.1-0.2-0.2-0.3-0.4c0,0,0,0,0,0
			c0,0,0,0-0.1,0c0,0-0.1,0-0.1,0c-0.1,0-0.1,0-0.2,0c-0.4,0-0.4-0.1,0.1-0.1c-0.1,0-0.3-0.1-0.5-0.3c-0.2,0.1-0.5-0.1-0.6-0.4
			c0,0-0.1-0.1-0.1-0.3c-0.1-0.3-0.2-0.7-0.2-0.9v0c0-1.1-0.2-1.5,1.1-1.5c-0.1,0.7-0.6,0.1-1,0.4c-0.2,0.5-0.1,1.2,0,1.7
			c0,0.1,0,0.2,0.1,0.3c0,0.1,0.1,0.2,0.1,0.3c0.2,0.2,0.6-0.5,0.8-0.7c0.1-0.1,0.3,0.2,0.4,0.5c0.1-0.8,0.4-1.8,0.3-2
			c0.1,0.3,0.2,0.4,0.2,0.4c0,0,0,0,0,0c0.1-0.1-0.1-1,0.4-0.7c0.1,0.3,0.1,0.7,0.1,1c-0.2,0.1-0.2-0.5-0.4-0.3c0,0,0,0,0,0
			c0,0,0,0,0,0c0,0-0.1,1.8,0.4,1.2c-0.1,0.3-0.1,0.5-0.1,0.8c0.4,0.1,0.7,0.2,1,0.2c0.3-0.3,0.5-0.5,0.8-0.8c1.1-0.9,2.1-2,2.9-3.1
			c0,0,0,0,0,0c1.2-0.7,1.3-1.2,1.3-2.3c-0.3,0.3-1.2,0.9-0.5,0.9c-0.3,0.1-0.5,0.3-0.7,0.4v0c-0.3,0.3-0.3,0.2,0-0.2
			c0,0.1-0.9,0.2-1,0c-0.3-0.4,1.5-1.1,2.3-1.6c0-0.1,0.1-0.3,0.1-0.4c0.1-0.3,0.3-0.7,0.4-1c0.1-0.4,0.3-0.6,0.7-0.6c0,0,0,0,0,0
			c0,0,0-0.1-0.1-0.1c-0.3,0.2-0.8,0.4-1.1,0.5c0-0.5,0.4-0.3,0.4-0.9c0.1,0,0.3,0,0.4-0.1c0-0.3,0-0.5-0.1-1.3
			c0.4-0.2,0.6,1.2,1.2,0.7c0,0.2,0.2,0.7,0.3,1.1c0.7,0.1,1.1,0.6,1.1,1.2c0,1.3,0,2-0.1,3.2c0,0.5-0.3,0.9-0.4,1.4
			c-0.3,0.7-0.6,1.5-0.9,2.2C67,19.4,67,19.7,67,20c0,0.7-0.3,1.3-0.9,1.7c-0.4,0.3-0.5,0.6-0.5,1.1c0,0.1,0,0.1,0,0.2
			c0.2,0.9-0.1,1.7-0.7,2.4c-0.6,0.7-0.9,1.5-0.9,2.5c0,0.3-0.1,0.5-0.2,0.8c-0.2,0.7,0,1.3,0.7,1.5c0.2,0.1,0.7,0.2,1.1,0.3
			c0.3,0.1,0.6,0.4,0.6,0.7c0,0.4-0.3,0.7-0.7,0.7C64,31.9,60.3,31.9,58.7,31.9z M65.7,22.4c0.2,0,0.4,0,0.6,0.1
			c0.3,0.2,0.5,0.5,0.4,0.9C65.5,23.2,66.4,22.9,65.7,22.4z M60.9,40c0,0.2,0.1,0.3,0.2,0.3C61.3,40.8,59,39.9,60.9,40z M62.4,33.7
			C62.5,33.7,62.5,33.8,62.4,33.7C62.4,33.8,62.4,33.8,62.4,33.7c-0.1-0.2-0.5-0.5-0.3-0.8c0.3,0.5,0.3-0.2,0.6,0.3
			C62.8,33.2,62.5,33.6,62.4,33.7z M63.2,34c0.2-0.3,1.8-1,2-0.5C64.7,33.6,63.4,34.5,63.2,34z M66.4,35.6c-0.1-0.2-1.1-0.7-0.8-1
			c0.4-0.5,0.7,1.1,0.5-0.4C66.7,34,67,35.5,66.4,35.6z M65.8,32.8c-0.6,0.3-1.4,0.6-1.5,0.2c0.2-0.3,1.8-0.9,2-0.4c0,0,0,0,0,0
			c0.4,0.1,0.8,0.5,0.8,0.7C67,33.3,65.9,32.8,65.8,32.8z M68.8,42.1c-0.1-0.3-0.9-0.9-0.7-1.1c0.4-0.4,0.5,1.2,0.6-0.3
			C69.4,40.6,69.4,42.1,68.8,42.1z M70.9,35.3c-0.2-0.1-0.5,0-0.6,0.1h0c-0.2-0.4,0.5-1,0.8-0.7C71.1,35.2,70.4,34.7,70.9,35.3z
			 M71.1,38.7c-0.1-0.2-1.1-0.7-0.8-1c0.4-0.5,0.7,1.1,0.6-0.4C71.5,37.1,71.7,38.6,71.1,38.7z M73.8,33.8c-0.3-0.6,0.6-0.7,1.1-1
			c0.1,0.1-0.2,0.4-0.1,0.3c0.2-0.1,0.3-0.1,0.5-0.2C75.3,33.1,74,33.7,73.8,33.8z M74.8,38.8c-0.1-0.6,0.7-0.6,1.3-0.7
			c0.1,0.1-0.3,0.3-0.2,0.3c0.2,0,0.3-0.1,0.5-0.1C76.5,38.4,75.1,38.7,74.8,38.8z M78.7,33.9c-0.1,0.4,0,0.7-0.1,1.1
			c-0.2-0.1-0.4-1.6,0.6-1.3C79,34.5,79,33.7,78.7,33.9z M81.9,36.5c0,0.4,0.1,0.7,0.2,1.1c-0.2,0-0.8-1.5,0.2-1.4
			C82.3,37,82.1,36.2,81.9,36.5z M83.4,36.4c0.3,0.7-0.2,0-0.3,0.4c0.1,0.4,0.4,0.6,0.5,1C83.4,37.8,82.4,36.7,83.4,36.4z M93,40.5
			c0.1,0,0,0.6-0.2,0.7c0.1,0,0.7-0.4,0.7,0C92,41.7,92.9,40.4,93,40.5z M97.7,37.3L97.7,37.3c-0.4-0.3-0.3-0.5,0.4-0.7
			C98.4,36.9,98.1,37.2,97.7,37.3z M99.2,33.2c-0.1,0.5-2.6,1.3-3.4,1.3c-0.6,0-5.9,1.3-10.9-1.7c-0.2-0.4-5-3.9-5.1-4.3
			c-0.6-1.9-1.6-3.6-2.8-5.2c-0.4-0.5-1.3-0.4-1.6,0.1c-0.2,0.4-0.2,1-0.4,1.5c-0.1,0.3-0.2,0.7-0.3,1c-0.1,0.4-0.3,0.8-0.4,1.2
			c-0.2,0.6-0.5,2-0.6,2.7c-0.2,0.7,3,0.8,3.9,1c0.1,0,0.3,0.2,0.3,0.4c0,0.1-0.1,0.6-0.2,0.6c-0.6,0.2-4.1,0-4.8,0
			c-3.6,0-5.8,0.5-5.5-0.6c0-0.2,0.3-0.5,0.6-0.5c1.2-0.3,2.3,0,2.7-2.8c0-0.4,0-0.7,0.1-1.1c0.1-0.3,0.3-0.6,0.4-0.9
			c0.1-0.3,0.2-0.5,0.2-0.8c0-0.3,0.4-1.8,0.7-2.9c0-0.1,0-0.2,0.1-0.2c0.2-0.6,0.3-1,0.3-1.1c0.1-0.4,0.2-0.9,0.4-1.2
			c0.5-0.8,0.5-1.7,0.7-2.5c0.1-0.7,0.3-1.4,0.4-2c0.1-0.6,0-0.8-0.5-1.1c-0.5-0.3-1-0.5-1.5-0.8c-0.3-0.2-0.5-0.4-0.8-0.7
			c-0.2-0.3-0.2-0.5,0.2-0.6c0.2-0.1,0.4-0.1,0.5-0.1c1.2,0,2.4,0,3.7,0c0.9,0,1.7,0,2.6,0c0.8,0,1.5,0,2.3,0.3
			c0.9,0.3,1.8,0.5,2.7,0.7c0.4,0.1,0.7,0.3,0.8,0.8c0.1,0.4,0.2,0.8,0.4,1.2c0.1,0.2,0.4,0.4,0.6,0.5c0.7,0.3,0.8,0.5,0.4,1.1
			c-0.2,0.4-0.4,0.7-0.4,1.2c0,0.3-0.1,0.6-0.3,0.9c-0.1,0.2-0.3,0.4-0.4,0.7c-0.2,0.6-0.5,0.9-1,1.1c0.1,0.6-1.3,0.9-1.9,0.6
			c0.5,0,0.9-0.2,1.2-0.4c-0.1,0-0.2,0-0.3,0c-0.6,0-1.1,0-1.5,0.5c-0.2,0.2-0.4,0.4-0.7,0.6c-0.4,0.4-0.5,0.8-0.4,1.3
			c0.2,0.5,0.2,1.1,0.5,1.6c0.3,0.6,0.7,1.1,1.1,1.7c0.3,0.4,0.6,0.6,0.7,1.1c0.1,0.3,0.3,0.6,0.4,0.8c0.5,0.9,4,3,6.4,4.1
			c6.2,0.5,6.7-1.8,7.5-1.6c0.6,0.2,1.5,1.1,2.1,1.2C99.3,31.9,99.3,32.4,99.2,33.2z M72.7,14.6c0.6,0,0.5,0.6,0.5,1.1
			c-0.3,0.1-0.8,0.8-0.6-0.2c0-0.1,0.2,0.3,0.3,0.2C72.8,15.4,72.8,15,72.7,14.6z M83.5,22.7c0.1,0.3-0.2,1.1-0.3,1.4
			c0,0-1-1.7-1-1.9c0.3,0.2,0.5,0.3,0.8,0.5c0.3-0.5,0.4-1,0.8-1.5C84,21.6,83.3,22.3,83.5,22.7z M98.5,27.6c-0.9,0-1.8,0-2.6,0
			c-0.6,0-1.1,0.1-1.7,0.2c-0.2,0-0.5,0-0.7,0c-0.6-0.1-1.2-0.2-1.8-0.2c-1.5,0-3.1,0-4.6,0c-0.8,0-1.4-0.4-1.8-1.1
			c-0.2-0.4-0.1-0.9,0.3-1.1c-0.2-0.4-0.4-0.8-0.4-0.8c0.3,0.2,0.5,0.3,0.8,0.5c0.3-0.5,0.5-1,0.8-1.5c0.2,0.4-0.4,1.1-0.3,1.5
			c0.1,0,0.2,0,0.2-0.1c0.9-0.1,1.4-0.6,1.7-1.3c0.4-0.9,0.5-2.5,0.6-3.4c0-0.1,0-0.2,0.1-0.3c0.4-1.3,0-0.6,0.5-1.9
			c0.4-1,0.3-2,0.6-3c0.2-0.7-0.1-1.1-0.8-1.4c-0.5-0.2-0.9-0.6-1.2-1.1c-0.3-0.6,0.1-1.5,0.8-1.5c0.6,0,1.2-0.1,1.8,0.2
			c0.6,0.3,1.3,0.4,2.1,0.4c0.1,0,0.2,0,0.3,0c0.6-0.3,0.5,0,1.1-0.3c0.1,0.1,0,0.2-0.1,0.3c0.9,0,1.8,0,2.7,0c0.2,0,0.4,0,0.6,0.1
			c1,0.4,3.7,0.3,4.8,0.1c1.1-0.2,2.2-0.6,2.7,0.3c0.1,0.2-0.3,1.1-0.3,1.3c-0.1,0.4-0.3,0.9-0.4,1.3c-0.1,0.4-0.5,1.1-0.8,1.5
			c-0.2,0.2-0.5,0.3-0.7,0c-0.4-0.5-0.9-1.2-1.1-1.5c-0.2-0.3-0.4-0.5-0.6-0.7c0,0,0.1,0.1,0.1,0.1c-0.3,0.2-0.6-0.1-0.5-0.4
			c-0.3-0.2-0.7-0.3-1.1-0.3c-0.1,0-1.9,0-2,0c-1-0.4-1.9,0.1-2.9,0.2c-0.2,0-0.5,0.2-0.5,0.4c-0.2,0.6-0.6,1.1-0.9,1.6
			c-0.1,0.1-0.4,2.5,0.8,2.6c0.9,0,1.9,0.1,2.8,0.1c0.2,0,0.4-0.1,0.6-0.2c0.3-0.2,0.6-0.5,0.9-0.7c0.2-0.2,0.4-0.4,0.7-0.5
			c0.2-0.1,0.6-0.1,0.8,0.1c0.2,0.1,0.1,0.5,0.2,0.7c0,0.1-0.1,0.3-0.2,0.4c-0.5,0.9-0.7,1.8-0.7,2.8c0,0.5-0.2,1-0.7,1.4
			c-0.2,0.2-0.6,0.2-0.7-0.1c-0.3-0.4-0.5-0.9-0.8-1.3c-0.4-0.5-0.9-0.7-1.5-0.7c-0.6,0-1.2-0.1-1.8-0.1c-0.3,0-0.6,0.2-0.8,0.4
			c-0.7,0.6-0.8,3.5-0.3,4c0.8,0.8,1.7,1.3,2.8,1.3c0.4,0,0.9,0,1.3,0c0.8,0.1,1.5-0.2,2.2-0.5c0.4-0.2,0.9-0.3,1.4-0.4
			c0.6-0.1,1-0.3,1.4-0.8c0.2-0.3,0.7-0.7,1.1-0.9c0.2-0.1,0.4,0,0.4,0.2c0,0.2,0,0.3,0,0.5c-0.3,1.2-0.7,2.3-1,3.5
			c0,0.2-0.3,0.3-0.4,0.4c-0.3,0.1-0.6,0.1-0.8,0C99.9,27.6,99.2,27.6,98.5,27.6z M103.3,21.7c-0.3,0-0.6,0-0.8,0.1
			c-0.1-0.5,0.4-0.6,0.8-0.6C103.3,21.4,103.3,21.5,103.3,21.7z M99.6,16.4c-0.2-0.8-0.1-0.4,0.2-0.6
			C100.1,15.7,100.1,16.3,99.6,16.4z M95.2,14.7c0.1-0.6,1.1,0.3,1.4,0.3h0c0,0.1,0,0.2,0,0.3c-0.2,0-0.4,0-0.5,0
			c-0.1,0.4-1.3,0.2-1.1,0h0c0.3-0.1,0.4,0,0.6,0C96.2,15.2,95.6,14.7,95.2,14.7z M94.6,21.6c0.3-0.1,0.3-0.6,0.8-0.3h0
			C96.1,22.2,95.2,22.1,94.6,21.6z M101.8,28.6L101.8,28.6c-0.4,0.2-0.6,0-0.5-0.7C101.8,27.8,101.9,28.1,101.8,28.6z M108.4,42.1
			C107.8,41,109.6,41.4,108.4,42.1L108.4,42.1z M109.5,35C109.2,33.9,110.8,34.6,109.5,35L109.5,35z M110.5,38.4
			C110.1,37.3,111.8,38.1,110.5,38.4L110.5,38.4z M112.2,41.5L112.2,41.5c0.5-0.5-0.8-0.4,0.2-1c0.2,0.4,0.2,0.8,0.4,0.8
			C112.6,41.4,112.4,41.5,112.2,41.5z M113.2,33.2L113.2,33.2c0,0.2-0.1,0.2-0.3,0.1c0.3-0.4-0.7-0.8,0-0.9
			c-0.6-0.2-1.3,0.1-0.9-0.8c0.7,0.2,1,0.8,1.8,0.9C113.1,32.5,113.4,32.9,113.2,33.2z M114.3,28.4L114.3,28.4
			c-0.1,0.1-0.3,0.1-0.4,0c0.4-0.2-0.3-1,0.4-0.8c-0.2-0.2-0.5-0.4-0.7-0.5c-0.3,0.2-0.6,0.5-0.6,0.3h0c0.1,0,0.3-0.3,0.5-0.5
			c0-0.1,0.1-0.2,0.3-0.4c0,0,0,0.1,0.1,0.1c0.1-0.1,0.3-0.1,0.3,0c0,0-0.1,0.1-0.2,0.2c0.3,0.5,0.5,1,1,1.3
			C114.6,27.8,114.7,28.2,114.3,28.4z M115.5,40.5L115.5,40.5c-0.6,0.1-0.5-0.5-0.6-1C115.1,39.1,115.4,40.4,115.5,40.5z
			 M115.1,42.1C115.1,42.1,115.1,42.1,115.1,42.1L115.1,42.1C115.1,42.1,115.1,42.1,115.1,42.1c-0.4-0.5,0.3-0.7,0.7-1
			C116.1,41.2,115.2,42.1,115.1,42.1z M118.2,36.6c-0.1,0-0.2-0.1-0.4-0.1h0c0.1-0.2,0.1-0.4,0.1-0.6
			C118.5,36.1,118.4,35.9,118.2,36.6z M120.5,41L120.5,41c0,0.2-0.1,0.3-0.3,0.2c0.2-0.4-0.9-0.5-0.3-0.9c-0.7,0-1.2,0.5-1.2-0.4
			c0.7-0.1,1.3,0.4,2,0.2C120.3,40.4,120.6,40.7,120.5,41z M120,39L120,39C120,39,120,39,120,39c0.1,0.1,0.2,0.1,0.3,0.2
			c-0.1,0.3-0.2,0.6-0.5,0.7C119.3,39.7,119.9,39.1,120,39C120,39,120,39,120,39z M121.8,30.7c0.2,0.4,0.4,0.7,0.3,1.2
			c-0.1,0.2-0.2,0.5-0.4,0.5c-0.9,0.3-1.8,0.3-2.6-0.2c-0.3-0.2-0.4-0.5-0.5-0.8c0-0.2-0.1-0.4-0.2-0.6c-0.4,0.2-1,0.5-1.1,0.3h0
			c0.2,0,0.6-0.3,1-0.5c-0.1-0.1-0.1-0.3-0.2-0.4c-0.5-1-1.2-2-1.3-3.2c0-0.2-0.1-0.5-0.2-0.6c-0.5-0.5-0.6-1.2-0.8-1.8
			c-0.1-0.3-0.2-0.5-0.4-0.7c-0.5-0.4-0.8-0.9-0.7-1.5c0-0.1,0-0.2,0-0.3c-0.3,0.3-0.7,0.7-0.8,0.5h0c0.2-0.1,0.5-0.5,0.7-0.8
			c-0.1-0.2-0.2-0.4-0.3-0.5c-0.4-0.7-0.6-1.4-1-2.1c-0.1-0.3-0.3-0.6-0.4-0.9c-0.2-0.3-0.5-0.5-0.9-0.4c-0.4,0.1-0.7,0.3-0.8,0.7
			c-0.4,1.5-0.9,2.9-1.3,4.5c-0.1,0.6-1.2,2.2-1.1,4.1c0,0.5-0.1,0.9-0.4,1.2c-0.5,0.4-0.1,1.9,0.5,2c0.3,0.1,2.2,0.2,2.5,0.3
			c0.4,0.2,0.6,1,0.2,1.2c0,0-8.5,0.3-9.5,0.2c-0.6,0-1.5-0.2-1.2-1.1c0.2-0.5,0.8-0.6,1.2-0.6c0.4,0,1,0,1.4,0.1
			c0.7,0,1.4-0.4,1.8-1c0.2-0.3,1.9-4.2,2.2-5.2c0.6-1.8,1.2-3.7,1.8-5.5c0.1-0.5,0.1-1,0.2-1.5c0-0.1,0.1-0.2,0.1-0.3
			c-0.1-0.1-0.3-0.2-0.5-0.2c0.1-0.2,0-0.3-0.2-0.4h0c0.2-0.6,0.7-0.6,1-0.4c0.1-0.1,0.1-0.3,0.2-0.4c0.3-0.9-0.1-1.5-1-1.7
			c-1-0.2-1.7-0.9-2.3-1.6c-0.4-0.4-0.2-0.9,0.4-1c1.2-0.3,2.3-0.1,3.4,0.5c0.3,0.2,0.7,0.3,1,0.3c0.9,0,1.6,0.3,2.1,1.1
			c0.6,0.9,1.2,1.8,1.5,2.9c0.2,0.7,0.7,1.3,1.1,1.9c0.4,0.6,0.7,1.2,1,1.8c0.4,0.7,0.7,1.5,1,2.2c0.3,0.7,0.5,1.4,0.8,2.1
			c0.3,0.8,0.8,1.5,1.5,2c0.5,0.4,0.7,0.3,0.9-0.3c0.4-1.2,0.8-2.4,1.2-3.7c0-0.1,1.7-3.3,0.2-3.2c-1.1,0.1-0.2-2.2,0.6-2.2
			c1-0.1,2,0.1,3,0.4c0.7,0.2,1,0.9,0.6,1.5c-0.4,0.6-0.8,1.2-1.3,1.8c-0.5,0.8-2.4,4.6-2.6,5.2c-0.3,0.8-0.5,1.6-0.8,2.4
			c-0.1,0.3-0.3,0.7-0.5,1C121.4,29.7,121.5,30.2,121.8,30.7z M110.6,27.3L110.6,27.3C110.6,27.3,110.6,27.3,110.6,27.3
			c0.6,0.3-0.6,2.4-0.7,2.6c0-0.1-0.1-0.2-0.2-0.3C110.1,29.1,110.1,27.5,110.6,27.3C110.6,27.3,110.6,27.3,110.6,27.3z M110.7,26.2
			C110.7,26.2,110.7,26.2,110.7,26.2L110.7,26.2C110.7,26.2,110.7,26.2,110.7,26.2c0.7-0.1,0.8,2.4,0.8,2.6
			c-0.1-0.1-0.2-0.1-0.3-0.1C111.2,28,110.4,26.6,110.7,26.2z M107.6,18.6c0.2-0.1,0.3,0.5-0.1,0.6
			C107.2,18.5,107.3,18.8,107.6,18.6L107.6,18.6z M120.8,21.5c-0.1-0.1-0.1-0.1,0.3-0.2c0.2,0.1-0.1,0.7,0.2,0.6
			c-0.1,0.1-0.6,0.2-0.6,0.1C120.8,21.8,120.9,21.7,120.8,21.5L120.8,21.5z M122.9,37.2L122.9,37.2c-0.1-0.2-0.2-0.3-0.3-0.5
			c0.1-0.1,0.5,0.4,0.6,0.5c-0.1-0.2-0.2-0.4-0.4-0.6c0.8,0.2,0.7,1.5,0.8,1.8C123.2,38.3,123.4,37.3,122.9,37.2z M125.4,39.1
			c-0.3-0.4,0.5-1,0.1-1.4h0c0-0.2,0.1-0.4,0.1-0.5c0.2,0,0.1,0.7,0.2,0.8c0.1-0.2,0.2-0.5,0.1-0.7
			C126.4,37.8,125.5,38.8,125.4,39.1z M127.3,36.2L127.3,36.2c-0.1-0.2-0.2-0.3-0.3-0.4c0.1-0.1,0.6,0.3,0.7,0.4
			c-0.1-0.2-0.2-0.4-0.5-0.6c0.8,0.1,0.9,1.4,1.1,1.7C127.8,37.2,127.9,36.2,127.3,36.2z M129.8,37.6c0-0.1-0.1-0.4-0.2-0.6
			c-0.3,0.1-0.6,0.3-0.8,0.2h0c-0.1-0.1,0.4-0.3,0.9-0.6c-0.3-0.7-0.5-0.1-0.7-0.6c0.6-0.2,0.9,0,1,0.4c0.2-0.1,0.3-0.1,0.3-0.1
			c0.1,0,0,0.2-0.2,0.3c0.1,0.4,0.1,1,0.3,1.3C130.4,38,129.9,37,129.8,37.6z M131.2,40.6C131.2,40.6,131.2,40.6,131.2,40.6
			L131.2,40.6C131.2,40.6,131.2,40.6,131.2,40.6c-0.1,0,0.1-0.3,0.4-0.7c0.1-0.4,0.7-1.3,0.8-1.4c0.1,0,0,0.3-0.1,0.6
			C132.4,39.3,131.6,40.5,131.2,40.6z M134.5,39.2c0-0.1,0.1-1.1-0.3-0.7c0.1-0.1,0.2-1,0.5-0.7c0.3-0.9-0.3-0.4-0.2-1
			C136,37.2,134.6,38.4,134.5,39.2z M135.1,15.5c-0.6,0.8-0.9,1.7-0.9,2.8c0,0.6,0.1,1.2-0.1,1.8c-0.3,0.8-0.4,1.6-0.5,2.4
			c-0.1,0.5-0.1,0.9-0.2,1.4c-0.1,0.4-0.3,0.8-0.6,1.2c-0.3,0.5-0.5,0.9-0.3,1.4c0.2,0.7-0.1,1.4-0.2,2.1c0,0.3-0.1,0.6-0.2,0.9
			c-0.1,0.4,0,0.7,0.4,0.9c0.6,0.4,1.5,0,2,0.5c0.3,0.2,0.3,1,0.1,1c-0.7,0-9.3,0.1-9.5,0c-0.4-0.2-0.4-0.8-0.3-1.2
			c0.1-0.3,0.5-0.5,0.9-0.4c0.4,0,0.9,0.1,1.3,0.1c1.4,0.1,1.7-0.7,1.8-1.7c0.1-0.6,0.1-1.2,0.2-1.8c0.1-0.5,0.3-0.9,0.4-1.3
			c0.2-0.8,0.3-1.7,0.5-2.5c0.2-0.8,0.5-1.5,0.7-2.3c0.1-0.3,0.8-3.1,0.8-4c0-0.3,0.3-1.4,0.4-1.6c0.2-0.8-7.2-0.8-8-0.9
			c-1-0.2-2-0.4-3-0.4c-0.9,0-1.6,0.5-2.1,1.3c-0.2,0.4-0.5,0.7-1,0.8c-0.9-0.7-0.4-4.2-0.2-4.7c0.1-0.2,0.2-0.5,0.4-0.7
			c0.4-0.4,0.6-0.6,1-0.5c0,0,0.1-0.1,0.1-0.1h0c-0.1-0.2,0.1-0.1,0.3,0c0,0.1,0,0.1-0.1,0.2c0.1,0.1,0.3,0.1,0.4,0.3
			c0.4,0.3,0.8,0.6,1.2,0.9c0.7,0.6,1.6,0.8,2.5,0.8c0.9,0,7.3,0.1,9.3,0.1c0.3-0.1,0.5-0.1,0.5-0.1c0,0,0.1,0.1,0.1,0.1
			c0.5,0,1,0.2,1.5,0.2c0.6,0,1.7,0,3,0c0,0,0,0,0,0c0,0,0,0,0,0c3.7,0,9.3,0,10.9,0c0.7,0,1.3-0.2,1.8-0.6c0.5-0.4,0.7-0.3,0.8,0.3
			c0.2,1,0,1.9-0.4,2.8c-0.2,0.4-0.2,0.7-0.3,1.1c0,0.1,0,0.3-0.1,0.4c-0.1,0.2-0.3,0.4-0.5,0.5c-0.3,0.1-0.4-0.2-0.5-0.4
			c-0.1-0.1-0.1-0.3-0.2-0.4c-0.3-0.8-0.8-1.3-1.7-1.3c-0.2,0-0.7,0-1.4,0c0.1,0.1,0.1,0.3,0,0.4h0c-0.1-0.2-0.1-0.3-0.1-0.4
			c-0.1,0-0.2,0-0.3,0c0,0,0,0,0,0c0,0,0,0,0,0c-3,0-8.3,0-9.3,0C135.8,14.8,135.4,15.1,135.1,15.5z M139.4,15.1
			C139.4,15,139.4,15,139.4,15.1L139.4,15.1c1.1-0.9,0.6,0.9-0.2,0.2c-0.4,0.2-1.4,1-1.6,0.6C138,15.7,139.2,15.1,139.4,15.1
			L139.4,15.1z M136.2,22.5c0.5,0.2,0,0.3,0.3,0.6h0c0.1,0.1,1,0,1-0.1c0-0.3-0.4-0.6-0.6-0.8c0.4-0.2,1.3,0.3,1.7,0.4
			c-0.5,0.2-0.5,0.6-0.1,1C137.8,23.5,135.6,23.4,136.2,22.5z M138.6,39.2c0-0.1,0.8-0.8,0.2-0.8c0.2-0.1,0.8-0.6,0.9-0.2
			c0.7-0.5,0-0.5,0.4-0.9C140.9,38.5,139.2,38.6,138.6,39.2z M146.7,21.3c-0.1,0.2,0,0.4,0.3,0.6c-0.2,0-0.5,0.1-0.8,0.1
			c0,0,0,0.1-0.1,0.1c-0.6,1-0.9,2-1.2,2.9c-0.5,1.6-1,3.2-1.4,4.8c-0.1,0.4,0,0.8,0.4,0.8c0.8,0.1,3.5-0.1,2.7,1.2
			c0,0-8.3,0.1-8.6,0.1c-0.8,0-1.6-0.2-1.3-1c0.1-0.5,1.1-0.6,1.6-0.6c0.9,0,2.2,0.1,2.5-0.6c0.2-0.6,0.6-1.9,0.6-2.5
			c-0.1-1.1,2.4-6,1.9-6.2c-0.5-0.2-2.3-0.3-2.7-0.6c-0.2-0.1-0.4-0.3-0.6-0.5c-0.2-0.3-0.1-0.7,0.3-0.8c0.2-0.1,0.3-0.1,0.5-0.1
			c0.9,0,2.8,0,3.7,0c0,0,0,0,0,0c0.9,0,1.7,0,2.6,0c0.2,0,0.5,0.1,0.6,0.3c0.3,0.3,0.3,0.5,0.2,0.9
			C147.8,20.6,147.5,20.2,146.7,21.3z M151.5,41.6L151.5,41.6c0-0.2,0-0.5,0.1-0.8c-0.5,0-1.2-0.1-1.3-0.1h0c0-0.3-2-0.6-2.3-1
			c1.2,0.3,2.5,0.6,3.7,1c0.1-0.3,0.1-0.6,0.2-0.8C152.4,40.2,152.5,41.9,151.5,41.6z M151.6,37.8L151.6,37.8c0.1-0.3-1.8-1.2-2-1.6
			c1.2,0.7,2.4,1.4,3.6,2.2C153.2,38.5,151.9,37.9,151.6,37.8z M152.1,39.3c-0.5,0.8-0.6-0.1-0.9-0.3
			C151.2,37.9,152.5,38.7,152.1,39.3z M153.5,40.5C153.5,40.5,153.5,40.5,153.5,40.5L153.5,40.5C153.5,40.5,153.5,40.5,153.5,40.5
			c-0.3-0.4-0.7-1.1-0.8-1.5C153.4,38.8,154.5,40.1,153.5,40.5z M155.2,40.5c-0.7,0.7-0.5-0.2-0.9-0.4h0
			C154.6,38.9,155.7,39.9,155.2,40.5z M156.7,38.5L156.7,38.5c0.1-0.2-1.5-1.6-1.5-2c1,1,2,2,3,3C158.1,39.5,156.9,38.6,156.7,38.5z
			 M157.4,34.3L157.4,34.3C157.4,34.3,157.4,34.3,157.4,34.3c-0.1-0.5-0.1-1.3-0.1-1.7C158,32.7,158.5,34.4,157.4,34.3
			C157.4,34.3,157.4,34.3,157.4,34.3z M159.1,26.1c0.2,0,1.2,0.2,1.4,0.3h0C160.5,27,159.1,26.8,159.1,26.1z M158.8,23.6
			c0.6-0.8,2.6,0.8,2.3,1.3h0C160.3,24.6,159.7,23.5,158.8,23.6z M160.6,30.2c0-0.2,0.6-0.1,0.5-0.4h0c0.2,0.1,0.2,0.4,0.3,0.8
			C161.5,30.7,160.5,30.5,160.6,30.2z M160.9,28.5c0.1-0.2,0.6,0,0.5-0.3c0,0,0,0,0,0h0c0,0,0,0,0,0c0.2,0.1,0.2,0.4,0.3,0.8
			C161.7,29.1,160.8,28.8,160.9,28.5z M171.8,21.3c-0.4,0.8-0.8,1.5-1.2,2.2c-0.1,0.1-0.1,0.2-0.1,0.4c0,0,0,0,0,0.1
			c0.1,0.6,0.2,1.3,0.8,1.1c0.1,0.5-0.3,0.2-0.1,0.9c-0.4,0.1-0.6-0.6-0.8-1.4c-0.1,0.4-0.2,0.8-0.3,1.2c-0.2,0.8-0.5,1.7-0.8,2.5
			c-0.1,0.3-0.3,0.7-0.5,1c-0.3,0.5-0.2,1,0.1,1.5c0.2,0.4,0.4,0.7,0.3,1.2c-0.1,0.2-0.2,0.5-0.4,0.5c-0.9,0.3-1.8,0.4-2.6-0.3
			c-0.2-0.2-0.3-0.5-0.5-0.8c-0.2-0.4-0.3-0.9-0.5-1.3c-0.5-1-1.2-2-1.3-3.2c0-0.2-0.1-0.4-0.2-0.6c-0.5-0.6-0.6-1.3-0.8-1.9
			c-0.1-0.2-0.2-0.5-0.4-0.6c-0.5-0.4-0.9-0.9-0.7-1.6c0.1-0.4-0.1-0.8-0.3-1.1c-0.4-0.7-0.6-1.4-1-2.1c-0.1-0.3-0.2-0.6-0.4-0.8
			c-0.2-0.3-0.5-0.5-0.9-0.4c0,0,0,0,0,0c0.1,0.3,0.1,0.6-0.1,0.7h0c0-0.1-0.1-0.3-0.2-0.5c-0.2,0.1-0.3,0.2-0.4,0.4c0,0,0,0,0,0
			c0.1,0.4,0.6,0.7,0.9,0.9c0,0,0-0.4,0-0.7c0-0.1,0-0.2,0-0.2c0,0,0,0.1,0,0.2c0.2,0.5,1.5,1.1-0.1,1c-0.4,0-0.8,0.2-1.2,0.3
			c-0.3,1.2-0.6,2.4-1,3.6c-0.1,0.5-0.5,0.9-0.7,1.3c-0.2,0.3-0.4,0.6-0.3,1c0,0.2,0,0.5,0,0.7c0.3,0,0.7,0,0.8,0h0
			c0.1,0.4-0.4,0.5-0.8,0.5c0,0.1,0,0.2,0,0.3c0,0.5-0.1,0.9-0.5,1.3c-0.4,0.4-0.3,1.6,0.3,1.8c0.3,0.1,2.7,0.3,3,0.4
			c0.5,0.2,0.6,1,0.2,1.3c-0.3,0.2-2.4,0.1-3.1,0.1c-0.3,0-5.4,0-6.5,0c-0.5,0-1-0.3-1.1-0.8c-0.1-0.5,0.2-1.1,0.8-1.1
			c0.5,0,1,0,1.4,0c0.7,0.1,1.4-0.3,1.8-0.9c0.1-0.2,0.3-0.4,0.5-0.6c0.3-0.4,1.4-2.8,1.6-3.5c0.4-1.5,0.9-3,1.4-4.5
			c-0.2-0.4-0.4-0.7-0.8-0.8c0.3-0.2,0.7,0,1,0.3c0.1-0.2,0.1-0.5,0.2-0.7c-0.4,0-0.7-0.1-0.8-0.5h0c0.9-0.2,0.2-0.4,0.7-1
			c0.2,0.4,0.3,0.4,0.4,0.3c0-0.3,0.1-0.6,0.1-0.9c0.1-0.3,0.2-0.6,0.4-0.9c0.1-0.2,0.2-0.4,0.3-0.6c0.3-0.9-0.1-1.5-1-1.7
			c-0.1,0-0.3-0.1-0.4-0.1c0.5,0.5,1.1,1.1,0.7,1.5c0,0,0,0,0,0h0c0,0,0,0,0,0c-0.2-0.4-1.2-1.3-1.4-1.8c-0.5-0.3-0.9-0.7-1.3-1.2
			c-0.4-0.4-0.1-0.9,0.4-1c1.2-0.3,2.3-0.1,3.3,0.5c0.3,0.2,0.7,0.4,1.1,0.3c0.9-0.1,1.6,0.3,2.1,1.1c0.6,0.9,1.2,1.8,1.5,2.9
			c0,0.1,0.1,0.2,0.1,0.3c0.9-0.1,0.2-0.4,0.7-0.9c0.3,0.6,0.2,0.3,0.7,0.2c0.1,0.4,0.4,0.9,0.7,1c0,0,0.1-0.4,0.2-0.7
			c0-0.1,0-0.2,0.1-0.2c0,0,0,0.1-0.1,0.2c0,0.6,1.2,1.3-0.3,0.9c-0.5-0.1-1.4,0.2-1.8-0.1c0.2,0.4,0.4,0.7,0.7,1
			c0.6,0.7,1,1.4,1.2,2.3c0.2,0.6,0.6,1.2,0.9,1.8c0.3,0.7,0.6,1.4,0.8,2.2c0.3,0.8,0.8,1.5,1.6,2c0.5,0.3,0.7,0.3,0.9-0.3
			c0.4-1.2,0.8-2.4,1.2-3.6c0-0.1,0-0.2,0.1-0.3c0.6-0.7,0.6-1.6,0.8-2.4c0.1-0.2,0-0.4,0-0.5c0-0.5,0-0.9,0.4-1.2
			c0,0,0.1-0.1,0.1-0.1c0.1-0.8,0.2-1.5,0.5-2.2c0.1-0.3-0.2-0.5-0.5-0.5c-1-0.1-1.7-0.7-2.3-1.4c-0.2-0.2-0.3-0.4-0.4-0.6
			c-0.2-0.4,0-0.7,0.5-0.7c0.1,0,0.3,0,0.4,0.1c0.8,0.3,1.6,0.4,2.4,0.4c1-0.1,2,0.1,3,0.4c0.7,0.2,1,0.9,0.5,1.5
			c-0.4,0.6-0.9,1.3-1.3,1.9c-0.5,0.7-0.8,1.5-1,2.3c-0.1,0.4-0.4,0.7-0.6,1.1c-0.1,0.2-0.1,0.4-0.2,0.6
			C172,20.8,172,21.1,171.8,21.3z M158.4,25.2L158.4,25.2C158.4,25.2,158.4,25.2,158.4,25.2c0.4,0.4-0.7,1.2-1.2,0.7
			C157.3,25.8,158.2,25.2,158.4,25.2C158.4,25.2,158.4,25.2,158.4,25.2z M153.9,20.6c0.1,0.6,1,2.3,0.2,2.4h0
			C154.1,22.5,153.3,20.6,153.9,20.6z M177.2,19.9c-0.1,0.2-1.8,0.7-1.9,0.6l0,0c0.2-0.1,1.3-1.1,1.6-0.9c0.1,0.1-0.2,0.3-0.2,0.3
			C176.9,20.1,177.1,20,177.2,19.9z M173.4,20.3L173.4,20.3C173.4,20.3,173.4,20.3,173.4,20.3c-0.2-0.4-0.3-0.2-0.3-0.8
			C173.3,19.4,173.9,20.1,173.4,20.3C173.4,20.3,173.4,20.3,173.4,20.3z M173.3,22c0.2-0.1,1.2-1.2,1.5-1c0.1,0.1-0.2,0.3-0.2,0.3
			c0.2,0.1,0.3,0,0.4-0.1C175.1,21.5,173.4,22.1,173.3,22L173.3,22z M174.5,20.1c0.2-0.1,0.9,0.4,0.4,0.7h0
			C174.6,20.5,174.6,20.7,174.5,20.1z M176.5,36.3c0.3-0.3,1.4-1,1.5-0.9h0C177.4,35.9,177,36,176.5,36.3z M179.8,38L179.8,38
			c0-0.2-0.2-0.8,0.1-0.8C179.7,37.8,180.4,38.2,179.8,38z M185.9,37.5L185.9,37.5c-0.1,0.3-0.6-0.6,0.3-0.4
			C186.3,37.3,186.1,37.4,185.9,37.5z M186.8,35.2c0.3-1.3,0.6-0.1,0.8-0.1h0C187.4,35.7,187,35.1,186.8,35.2z M190,22.2L190,22.2
			C190,22.2,190,22.2,190,22.2c0.2,0.1-0.1,0.7-0.1,0.9c-0.4-0.2-0.6-0.4-0.6-0.8c0.1,0,0.4,0.6,0.5,0.5
			C189.9,22.5,189.9,22.3,190,22.2C190,22.2,190,22.2,190,22.2z M190,16.2c-0.6-0.1-1.1-0.3-1.5-0.8c-0.5-0.7-1.2-1.1-2.1-1.2
			c-0.1,0-0.3,0-0.4,0c-0.1,0-0.1,0-0.2-0.1c-0.1,0.2-0.2,0.4-0.3,0.6c0,0,0,0,0,0h0c0,0,0,0,0,0c-0.4-0.2-0.5-0.5-0.4-0.7
			c-0.7,0-1.3,0.3-1.9,0.4c-0.2,0-0.4,0.2-0.6,0.4c-0.3,0.4-0.4,0.9-0.8,1.2c-0.4,0.4-0.3,0.9-0.3,1.4c0,0.8-0.3,1.5-0.6,2.1
			c-0.5,1-0.3,1.3,0.8,1.3c1,0,1.9,0.1,2.9,0.1c0.2,0,0.4-0.1,0.5-0.2c0.3-0.2,0.6-0.5,0.9-0.7c0.2-0.1,0.4-0.3,0.6-0.4
			c-0.1-0.1-0.2-0.2-0.2-0.4c0,0,0.2,0.2,0.4,0.3c0.1,0,0.2-0.1,0.3-0.1c0-0.1,0-0.2,0-0.4c0,0,0,0,0,0h0c0,0,0,0,0,0
			c0.1,0,0.1,0.2,0.1,0.3c0.1,0,0.3,0,0.4,0.1c0.3,0.2,0.2,0.6,0.1,0.9c0,0.1-0.1,0.2-0.1,0.3c-0.5,0.9-0.7,1.8-0.8,2.8
			c0,0.5-0.2,1-0.7,1.4c-0.4,0.3-0.5,0.3-0.8-0.1c-0.1-0.2-0.2-0.4-0.3-0.5c0,0.1,0,0.2,0,0.4c0-0.3-0.1-0.4-0.4-0.4h0
			c0-0.2,0.1-0.3,0.1-0.4c0-0.1-0.1-0.1-0.1-0.2c-0.4-0.6-1-0.9-1.8-0.9c-0.6,0-1.1-0.1-1.7-0.1c-0.2,0-0.4,0.1-0.6,0.2
			c-0.6,0.5-1.1,1-1.1,1.9c0,0.7-0.2,1.4-0.3,2.1c0,0.2-0.2,0.3-0.3,0.4c-0.4,0.6-0.4,1.2,0.1,1.7c0.7,0.8,1.7,1.3,2.8,1.3
			c0.4,0,0.9,0,1.3,0c0.8,0.1,1.6-0.2,2.3-0.5c0.3-0.2,0.7-0.2,1-0.3c-0.6-0.1,0.1-0.6,0.1-0.8h0c0.6,0.1,0.3,0.4,0.3,0.7
			c0.6-0.1,1-0.3,1.4-0.8c0.3-0.5,1-1.2,1.5-1.1c0.4,0.1,0.1,0.6,0,0.9c-0.3,1.1-0.6,2.3-1,3.4c-0.1,0.3-0.5,0.6-1,0.4
			c-0.9-0.3-3.9-0.3-6.8-0.3c0,0.3-0.1,0.4-0.1,0.8c-0.2,0.1-0.9-0.5-0.9-0.6h0c0.1-0.1,0.3-0.1,0.5-0.1c-2.9,0-5.6,0.1-6.4,0.1
			c-0.8,0-1.4-0.4-1.8-1.1c-0.3-0.5-0.2-0.9,0.3-1.2c0.3-0.2,0.7-0.3,1.1-0.4c0.8-0.1,1.4-0.5,1.7-1.2c0.2-0.5,0.6-1.7,1-3
			c0,0,0-0.1,0-0.2c0,0,0-0.1,0-0.1c-0.2-0.2-1.3,0-1-0.4c0.3,0.1,0.7,0.1,1,0.3c0.3-0.9,0.5-1.8,0.6-2.1c0.2-0.7,0.5-1.3,0.7-2
			c0.3-1,1-4.3,1.1-4.8c0.2-0.9-0.1-1.5-0.9-1.7c-0.6-0.2-1-0.6-1.2-1.2c-0.2-0.5,0.3-1.3,0.8-1.4c0.6,0,1.2-0.1,1.8,0.2
			c0.7,0.3,1.4,0.4,2.1,0.4c1,0,1.9,0,2.9,0c-0.2-0.5,0.4-0.8,0.4-0.7c0,0.4,0,0.1,0.4,0.4c-0.1,0.1-0.2,0.2-0.2,0.3
			c0.2,0,0.3,0,0.5,0c0.2,0,0.4,0,0.6,0.1c1,0.4,2,0.3,3.1,0.1c1.3-0.3,1.8,0.3,2.3,1c0.1,0.2,0.1,0.5,0,0.7
			c-0.1,0.4-0.2,0.8-0.3,1.2C191,15.9,190.6,16.2,190,16.2z M184.4,25.6L184.4,25.6C184.4,25.6,184.4,25.6,184.4,25.6
			c-0.6-0.8-0.1-0.7,0.5,0C184.8,25.4,184.6,25.5,184.4,25.6C184.4,25.6,184.4,25.6,184.4,25.6z M183.2,28.3
			c-0.2,0.1-0.5,0.2-0.6,0.1c-0.4,0.3-0.8,0.5-0.9,0.4h0c0.1-0.1,0.3-0.4,0.6-0.7c-0.3,0.1-0.9,0.6-0.9,0.2c0.3-0.1,0.7-0.3,1-0.3
			c0.2-0.3,0.5-0.5,0.6-0.4c0.1,0-0.1,0.3-0.1,0.4c0.2,0,0.3,0,0.4-0.2c0,0.1-0.1,0.2-0.3,0.3C183.1,28.1,183.2,28.2,183.2,28.3z
			 M181,29.8c0.5-0.3,1.5-0.8,1.8-0.2c-0.3,0.1-0.8,0.4-0.7-0.1h0C182,29.3,181,30.3,181,29.8z M192.9,40.6c-0.7-0.6,0.6-1,0.7-0.9
			c0.3-0.3,0.5-0.5,0.7-0.8C194.7,39.1,193.2,40.2,192.9,40.6z M196.2,40.8C196.2,40.8,196.2,40.8,196.2,40.8L196.2,40.8
			C196.2,40.8,196.2,40.8,196.2,40.8c0.1,0.1,0.2,0.7,0.4,0.9C196.2,41.8,196.3,41.2,196.2,40.8z M196.7,41
			C196.7,41,196.7,41,196.7,41L196.7,41C196.7,41,196.7,41,196.7,41c0.1,0.1,0.3,0.7,0.5,0.9C196.7,42,196.7,41.4,196.7,41z
			 M197.3,35.8c-0.7-0.6,0.7-1,0.7-0.9h0c0.3-0.3,0.5-0.6,0.7-0.9C199.1,34.4,197.6,35.4,197.3,35.8z M202.9,25.4L202.9,25.4
			c0.1-0.6,0.5-0.1,0-0.9c0.2,0.2,0.4,0.4,0.7,0.5C203.4,25.5,203.3,25.7,202.9,25.4z M204.5,21.7L204.5,21.7
			c0.4-0.4,0.5,0.2,0.5-0.7c0.1,0.3,0.2,0.5,0.3,0.8C204.9,22,204.7,22,204.5,21.7z M204.8,16.1c0-1.2-0.6-1.9-1.5-2.5
			c-0.1-0.1-0.2-0.2-0.3-0.3c-0.1-0.1-0.2-0.2-0.3-0.3c-0.3,0.3-1,0.8-1,0.9c0-0.1-0.1-1.3,0.1-1.1c0.1,0.1,0.1,0.3,0.2,0.4
			c0.1-0.1,0.2-0.1,0.3-0.2h0c0,0,0.1-0.1,0.1-0.1c-0.5-0.3-1-0.3-1.6-0.1c-0.1,0-0.2,0.1-0.3,0.2c-0.3,0.3-0.6,0.6-1,0.8
			c-0.6,0.4-0.8,0.9-0.8,1.5c0,0.4,0,0.8,0,1.1c0,0.3,0,0.7,0,1c0.1,0.4,0.2,0.8,0.4,1.2c0.3,0.6,0.7,1.1,1.1,1.7
			c0.2,0.1,0.4,0.2,0.6,0.3c0,0.1-0.1,0.2-0.2,0.3c0.6,0.9,1.1,1.9,1.7,2.8c0.3,0.6,0.4,1.2,0.5,1.8c0,0.2,0.1,0.4,0.1,0.6
			c0.1,0,0.1-0.2,0.2-0.5c0,0.3-0.1,0.6-0.1,0.8c0,0-0.1,0-0.1,0c0.1,0.5,0.1,0.9,0.1,1.4c0,0.8-0.4,1.4-0.9,2
			c-0.5,0.4-0.9,1-1.4,1.4c-0.3,0.3-0.7,0.6-1.1,0.7c-2.1,0.8-4.1,0.8-6.2,0c-0.6-0.2-1.3-0.4-1.9-0.5c-0.7-0.1-1.1-0.5-0.9-1.3
			c0.1-0.5,0.3-0.9,0.5-1.4c0.3-0.7,0.7-1.3,1.1-2c0.1-0.2,0.3-0.4,0.4-0.3c0.2,0.1,0.5,0.2,0.5,0.4c0.1,0.2,0.1,0.6,0,0.8
			c-0.3,0.8-0.1,1.3,0.5,1.9c0.6,0.7,1.3,1.1,2.2,1c0.6-0.1,1.2,0,1.8-0.1c1.4-0.3,2.3-1.6,2.2-3.1c0-1-0.4-1.8-0.9-2.6
			c-0.4-0.5-0.7-1-0.8-1.7c0-0.2-0.2-0.4-0.3-0.6c-0.9-1.2-1.7-2.5-1.8-4.1c0-0.3-0.2-0.7-0.3-1c-0.2-0.5-0.3-0.9-0.2-1.4
			c0.2-0.9,0.5-1.7,0.8-2.5c0-0.1,0.2-0.3,0.3-0.4c0.4-0.3,0.8-0.5,1.1-0.7c0.1-0.1,0.2-0.2,0.3-0.2c0.7-0.4,1.1-0.5,1.9-0.7
			c0.9-0.3,2.2,0,3.1,0.3c0.8,0.3,1.6,0.6,2.4,0.9c0.6,0.2,0.8,0.6,0.9,1.2c0.1,1-0.4,1.8-1,2.5C205.3,16.8,204.8,16.6,204.8,16.1z
			 M202,19.5c-0.2,0.2-1,1.5-1.3,0.8h0c0.3,0.3,0.3-1.4,0.3-1.5C201.3,19,201.7,19.3,202,19.5z M200.3,18.7L200.3,18.7
			c-0.2,0-0.9-0.8-0.2-0.8C200.2,18.2,200.2,18.3,200.3,18.7z M197.8,28.2L197.8,28.2c-0.1,0.1-0.4,0-0.6-0.1
			c-0.1,0.1-0.2,0.1-0.3,0h0C197,28.1,197,28,197,28c0,0,0-0.1,0-0.1c-0.1,0-0.3,0.1-0.3-0.1c0.2-0.2,0.3-0.2,0.4-0.1c0,0,0,0,0,0
			c0,0,0,0,0,0c0.1,0.1,0.2,0.1,0.3,0.2c0,0,0,0,0,0C197.5,28,197.6,28.1,197.8,28.2z M206.5,21c0.5,0.4,0.3-0.4,0.8,0
			c-0.4,0.3,0,0.6-0.7,0.3h0c0,0.3,0.4,0.6,0.4,0.9C207,22.1,205.8,21.7,206.5,21z M206.9,25.5C207,25.5,207,25.5,206.9,25.5
			L206.9,25.5C206.9,25.5,206.9,25.5,206.9,25.5c-0.4-0.2,0.1-1.1,0.6-0.7C207.3,25.7,207.2,24.9,206.9,25.5z M215.2,19.1
			c0.2,0.2,0.4,0.7,0.5,1h0C215.5,20.6,215.3,19.2,215.2,19.1z M217,38.2c-0.1-0.1,0.3-1.2,0.4-1.3c0.3,0.4,0.2,0.8,0.5,1.2
			C217.6,38.3,217.4,38.6,217,38.2z M218.9,1L218.9,1c-1,0.6-0.8,0.4-0.4,1.5c-0.2,0.1-0.4,0.2-0.7,0.3c-0.1-0.3-0.2-0.5-0.3-0.8
			c-0.1,0.6-0.5,0-0.6-0.3C217.4,1.4,218.5,0.4,218.9,1z M217,22.1c0.1-0.2-0.4-0.9,0.1-0.4h0c0.1,0.1,0.3,0.3,0.4,0.4
			c-0.2,0.5-1.1-0.1-1.3-0.2C216.5,21.6,216.9,22.3,217,22.1z M216.2,19.7c-0.5-0.3-0.9-0.7-1.4-1.1h0
			C215.2,18.3,216.5,19.3,216.2,19.7z M214.8,15.2c0.3-0.4,1.7,0.7,1.4,1.1C215.7,15.9,215.3,15.5,214.8,15.2L214.8,15.2z
			 M214.9,20.8c0.2-0.1,0-1,0.3-0.3h0c0.1,0.2,0.1,0.4,0.2,0.6c-0.4,0.3-0.9-0.6-1.1-0.8C214.8,20.1,214.8,20.8,214.9,20.8z
			 M213.6,11.9C213.6,11.9,213.6,11.9,213.6,11.9L213.6,11.9C213.6,11.9,213.6,11.9,213.6,11.9c0.1,0.3,1-0.4,1,0.3
			c-0.1,0.1-0.8,0.7-0.9,0.6c0.1-0.2,0.3-0.4,0.5-0.6C214.1,12.3,213,12.4,213.6,11.9z M210.8,24.7c0-0.1-1.2-0.2-0.8-1.1
			c0.6,0.3,0.2-0.5,0.8-0.2c-0.3,0.4,0.1,0.6-0.6,0.5h0C210.3,24.2,210.8,24.4,210.8,24.7z M210.7,22.7L210.7,22.7
			C210.7,22.7,210.7,22.7,210.7,22.7c0.4,0.3-1.1,0.4-1.1,0.4C209.9,22.9,210.4,22.8,210.7,22.7C210.7,22.7,210.7,22.7,210.7,22.7z
			 M209,32.3L209,32.3c-0.1-0.1,0.3-1.2,0.4-1.3c0.3,0.4,0.2,0.8,0.5,1.2C209.5,32.5,209.4,32.8,209,32.3z M210.1,37.2L210.1,37.2
			c-0.1,0-0.3-1.2-0.2-1.4c0.5,0.3,0.5,0.7,1,0.8C210.6,37.1,210.6,37.4,210.1,37.2z M213,22.6L213,22.6c0.1,0.5-1.1-0.3-1.1-0.3
			C212.2,22.2,212.7,22.5,213,22.6z"/>
		<path d="M196.3,22.6c0.1,0,0.2-0.1,0.3-0.1c0-0.1-0.1-0.1-0.3-0.1C196.2,22.5,196.3,22.6,196.3,22.6z"/>
		<path class="st2" d="M52.8,12.7c0,0.3,0,0.6-0.1,0.8c2.1-0.1,4.1-0.1,6.2-0.1c1,0,1-1.6,0-1.6c-1.7,0-3.4,0-5.1,0
			C54,12.4,53.5,13.1,52.8,12.7z"/>
		<path class="st2" d="M52.8,12.7c0-0.1,0-0.1,0-0.2C52.8,12.6,52.8,12.7,52.8,12.7C52.8,12.7,52.8,12.7,52.8,12.7z"/>
		<path class="st2" d="M51.6,12.4c0.1,0.3,0.7-0.3,1-0.4c0.2-0.1,0.2,0.2,0.2,0.6c0-0.2,0.1-0.5,0.1-0.7c-0.4,0-0.9,0-1.3,0
			c0,0.1,0,0.2,0,0.3C51.5,12.2,51.6,12.3,51.6,12.4z"/>
		<path class="st2" d="M44.3,23.9c0-0.1,0-0.2,0.1-0.3c0.4-0.7,0.8-1.5,1.2-2.2c0.1-0.3,0.1-0.6,0.2-0.8c0.1-0.2,0.1-0.4,0.2-0.6
			c0.2-0.4,0.5-0.7,0.6-1.1c0.2-0.9,0.6-1.7,1.1-2.4c0.3-0.4,0.9-2,1.2-2.4c0.2-0.1,0.3-0.1,0.5-0.2c-0.2,0-0.3,0-0.5,0
			c-0.1,0-0.2,0.1-0.1,0c0,0,0,0,0.1,0c0.2-0.1,0.8-0.3,0.8-0.4c0,0.2-0.1,0.3-0.2,0.3c0.7-0.2,1.4-0.2,2.1-0.2
			c0.1-0.2,0.3-0.3,0.9-0.5c0,0.6-0.4,0.4-0.7,0.5c0.3,0,0.5,0,0.8,0c0-0.3,0.1-0.7,0.1-1c-0.7,0.7-1,0.3-1.1-0.3c0-0.1,0-0.2,0-0.3
			c0-0.1,0-0.2,0-0.3c-1.5,0-3-0.1-4.5-0.1c-0.4,0-0.8-0.1-1.2,0c-0.8,0-1.6,0.4-2.3,0.1c-0.3-0.1-0.7-0.2-0.9,0.1
			c-0.2,0.3,0,0.6,0.2,0.8c0.6,0.8,1.4,1,2.5,1.2c0.4,0.1,0.5,0.6,0.4,1.2c0.3-0.1,0.6-0.2,0.6-0.2c0,0.4-0.3,0.4-0.7,0.3
			c0,0.3-0.1,0.6-0.2,0.7c-0.2,0.4-0.2,0.8-0.3,1.2c-0.1,0.3-0.2,0.6-0.3,0.9c0,0,0,0,0,0c0,0,0,0.1,0,0.1c0.1,0.3,0.3,0.9,0.4,0.8
			c0.3-0.3-0.2-0.8-0.2-1c1.2-0.2,1.1,2.1-0.1,1.6c-0.1-0.1,0-1,0-1.3c0-0.1,0-0.1,0-0.1c-0.1,0.2-0.2,0.5-0.2,0.7
			c-0.1,1.2-0.2,2.3-0.9,3.3c-0.1,0.1-0.1,0.2-0.1,0.3c-0.4,1.2-0.8,2.4-1.2,3.7c-0.2,0.6-0.4,0.6-0.9,0.3c-0.7-0.5-1.2-1.2-1.5-2
			c-0.3-0.7-0.5-1.4-0.8-2.1c-0.3-0.8-0.7-1.5-1-2.2c-0.3-0.6-0.7-1.2-1-1.8c-0.4-0.6-0.8-1.2-1.1-1.9c-0.4-1.1-0.9-2-1.5-2.9
			c0,0,0-0.1-0.1-0.1c-0.1,0.2-0.2,0.5-0.3,0.7c-0.1-0.1,0-0.4-0.1-0.1c0-0.2,0.3-0.5,0.3-0.7c0,0,0-0.1-0.1-0.1c0,0,0,0,0,0h0
			c0,0,0,0,0,0c-0.5-0.5-1.1-0.8-1.8-0.8c-0.3,0-0.7-0.1-1-0.3c-1.1-0.6-2.2-0.8-3.4-0.5c-0.6,0.1-0.8,0.6-0.4,1
			c0.6,0.7,1.3,1.4,2.3,1.6c0.9,0.2,1.3,0.8,1,1.7c-0.1,0.2-0.2,0.4-0.3,0.6c-0.1,0.3-0.3,0.7-0.4,1c-0.1,0.5-0.1,1-0.2,1.5
			c-0.6,1.8-1.2,3.7-1.8,5.5c-0.3,0.9-1.4,3.8-1.7,4.1c-0.2,0.2-0.6,0.8-0.7,1c-0.4,0.6-4.1,0.8-4.8,0.8c-0.4,0-0.8,0-1.3-0.1
			c-0.4,0-1.2,0.3-1.2,0.7c0,0.9,0.5,1,1.1,1c1,0.1,8.4,0,9.3,0c0.2,0,3.7,0,4,0c1.1,0,0.9-1.4-0.1-1.6c-0.6-0.1-4.9-0.5-3.6-2
			c0.4-0.4,0.4-0.8,0.4-1.2c0-0.5,0-1,0-1.5c0-0.4,0.1-0.7,0.4-1c0.4-0.4,0.7-0.9,0.8-1.5c0.4-1.5,0.8-3.1,1.2-4.6
			c0.1-0.5,0.4-0.6,0.8-0.7c0.4-0.1,0.7,0.1,0.9,0.4c0.2,0.3,0.3,0.6,0.4,0.9c0.3,0.7,0.6,1.4,1,2.1c0.2,0.4,0.4,0.7,0.3,1.1
			c-0.1,0.7,0.2,1.1,0.7,1.5c0.2,0.2,0.4,0.4,0.4,0.7c0.2,0.6,0.3,1.3,0.8,1.8c0.1,0.2,0.2,0.4,0.2,0.6c0.1,1.2,0.8,2.2,1.3,3.2
			c0.2,0.4,0.4,0.8,0.5,1.2c0.1,0.3,0.2,0.5,0.4,0.7c0.1,0,0.1,0.1,0.2,0.2c0.8,0.5,1.7,0.5,2.5,0.2c0.2-0.1,0.3-0.3,0.4-0.5
			c0.1-0.4,0-0.8-0.3-1.2c-0.3-0.5-0.4-0.9-0.1-1.5c0.2-0.3,0.4-0.6,0.5-1c0.3-0.8,0.6-1.6,0.8-2.4C44.1,25.2,44.4,24.6,44.3,23.9z
			 M31.3,13.1L31.3,13.1L31.3,13.1C31.1,13,31,13.9,31,12.9c0-0.2,0-0.9,0.3-1c0.3,0.1,0.4,0.2,0.4,0.5c-0.2,0-0.4,0.1-0.6,0.1
			C31.2,12.7,31.2,12.9,31.3,13.1z M35.9,18.9c-0.2-0.4-1.2-0.1-1.4-0.6c0.1-0.1,1-0.3,1.1-0.3C35.7,18.2,36,18.7,35.9,18.9z
			 M38.8,22.9c0.2,0,0.5,0.5,0.5,0.7C38.5,23.5,38.6,23.7,38.8,22.9z M39,24.5c0.2,0,0.6,0.4,0.6,0.6C38.8,25.1,39,25.3,39,24.5z
			 M40.9,27.3c-0.2-0.3-1.2,0.1-1.5-0.4c0.1-0.1,1-0.4,1.1-0.4C40.7,26.7,41,27.1,40.9,27.3z"/>
		<path class="st2" d="M53.2,12.2c0.1-0.1,0.1-0.2,0.1-0.4c-0.1,0-0.2,0-0.3,0C53.1,12.1,53.1,12.3,53.2,12.2z"/>
		<path class="st2" d="M122.3,28.2c0.3-0.8,0.6-1.6,0.8-2.4c0.2-0.6,2.1-4.5,2.6-5.2c0.4-0.6,0.8-1.2,1.3-1.8
			c0.4-0.6,0.2-1.3-0.6-1.5c-1-0.3-2-0.5-3-0.4c-0.8,0-1.7,2.3-0.6,2.2c1.5-0.1-0.1,3.1-0.2,3.2c-0.4,1.2-0.8,2.4-1.2,3.7
			c-0.2,0.6-0.4,0.6-0.9,0.3c-0.7-0.5-1.2-1.2-1.5-2c-0.3-0.7-0.5-1.4-0.8-2.1c-0.3-0.8-0.7-1.5-1-2.2c-0.3-0.6-0.7-1.2-1-1.8
			c-0.4-0.6-0.8-1.2-1.1-1.9c-0.4-1.1-0.9-2-1.5-2.9c-0.5-0.8-1.2-1.1-2.1-1.1c-0.3,0-0.7-0.1-1-0.3c-1.1-0.6-2.2-0.8-3.4-0.5
			c-0.6,0.1-0.8,0.6-0.4,1c0.6,0.7,1.3,1.4,2.3,1.6c0.9,0.2,1.3,0.8,1,1.7c0,0.1-0.1,0.3-0.2,0.4c0.2,0.2,0.3,0.5,0.1,0.9
			c-0.2,0.2-0.3,0.1-0.5,0c0,0.1-0.1,0.2-0.1,0.3c-0.1,0.5-0.1,1-0.2,1.5c-0.6,1.8-1.2,3.7-1.8,5.5c-0.3,0.9-2,4.9-2.2,5.2
			c-0.4,0.6-1.1,1.1-1.8,1c-0.4,0-1,0-1.4-0.1c-0.4,0-1,0.1-1.2,0.6c-0.3,0.9,0.6,1,1.2,1.1c1,0.1,9.5-0.2,9.5-0.2
			c0.4-0.3,0.3-1.1-0.2-1.2c-0.3-0.1-2.2-0.3-2.5-0.3c-0.6-0.1-1-1.6-0.5-2c0.4-0.4,0.5-0.8,0.4-1.2c-0.1-1.9,0.9-3.6,1.1-4.1
			c0.4-1.5,0.9-2.9,1.3-4.5c0.1-0.5,0.4-0.6,0.8-0.7c0.4-0.1,0.7,0.1,0.9,0.4c0.2,0.3,0.3,0.6,0.4,0.9c0.3,0.7,0.6,1.4,1,2.1
			c0.1,0.2,0.2,0.4,0.3,0.5c0.2-0.2,0.3-0.2,0.4-0.1c0,0-0.1,0.2-0.3,0.4c0,0.1,0,0.2,0,0.3c-0.1,0.7,0.2,1.1,0.7,1.5
			c0.2,0.2,0.4,0.4,0.4,0.7c0.2,0.6,0.3,1.3,0.8,1.8c0.1,0.2,0.2,0.4,0.2,0.6c0.1,1.2,0.8,2.2,1.3,3.2c0.1,0.1,0.1,0.3,0.2,0.4
			c0.2-0.1,0.4-0.1,0.4,0.1c0,0-0.1,0.1-0.3,0.2c0.1,0.2,0.1,0.4,0.2,0.6c0.1,0.4,0.2,0.6,0.5,0.8c0.8,0.6,1.7,0.5,2.6,0.2
			c0.2-0.1,0.3-0.3,0.4-0.5c0.1-0.4,0-0.8-0.3-1.2c-0.3-0.5-0.4-0.9-0.1-1.5C121.9,28.9,122.1,28.6,122.3,28.2z M107.5,26.3
			c0-0.1,0-0.2-0.1-0.3c0.5-0.4,0.9-2,1.5-2.1h0C109.5,24.3,107.8,26.1,107.5,26.3z M109.1,20.3c-0.2-0.8-0.1-0.4,0.2-0.6h0
			C109.5,19.6,109.6,20.2,109.1,20.3z M111,17.8L111,17.8c-0.2,0-0.3,0-0.4,0c0-0.4,0.2-0.4,0.2-0.9C111.2,17.1,111.1,17.4,111,17.8
			z M112.2,16.7c-0.3-0.2-0.2-0.5-0.6-0.7c0.4-0.2,0.5,0.1,0.8,0.3h0C112.4,16.4,112.3,16.6,112.2,16.7z M118.2,25.3
			c-0.1-0.2-0.2-0.3-0.4-0.4c-0.1,0-0.1-0.1,0-0.3c0.2-0.1,0.5,0.5,0.6,0.2C118.5,25,118.3,25.4,118.2,25.3z"/>
		<path class="st2" d="M117.8,25C117.8,25,117.8,25,117.8,25C117.8,25,117.8,25,117.8,25L117.8,25z"/>
		<path class="st2" d="M145.7,14.8c0-0.1,0-0.7-0.1-0.7c0.2,0.1,0.5,0.4,0.6,0.7c0.6,0,1.1,0,1.4,0c0.9,0,1.4,0.5,1.7,1.3
			c0,0.1,0.1,0.3,0.2,0.4c0.1,0.2,0.2,0.5,0.5,0.4c0.2-0.1,0.4-0.3,0.5-0.5c0.1-0.1,0.1-0.2,0.1-0.4c0.1-0.4,0.2-0.8,0.3-1.1
			c0.4-0.9,0.7-1.8,0.4-2.8c-0.1-0.6-0.3-0.7-0.8-0.3c-0.5,0.4-1.1,0.6-1.8,0.6c-1.6,0-7.2,0-10.9,0c0.3,0.3,0.6,1,0.3,1.1h0
			c0-0.5-0.1-0.6-0.4-0.5c0,0,0.1-0.6,0.1-0.7c-1.3,0-2.4,0-3,0c-0.5,0-1-0.1-1.5-0.2c0,0.4-2.1,0.7-2.2,0.7h0
			c0.2-0.3,1.1-0.6,1.7-0.7c-2-0.1-8.4-0.1-9.3-0.1c-0.9,0-1.8-0.2-2.5-0.8c-0.4-0.3-0.8-0.6-1.2-0.9c-0.2-0.1-0.3-0.2-0.4-0.3
			c-0.1,0.1-0.3,0.3-0.1,0.4c-0.1,0-0.6-0.2-0.5-0.3c0.1-0.1,0.2-0.1,0.3-0.2c-0.3,0-0.6,0.1-1,0.5c-0.2,0.2-0.3,0.4-0.4,0.7
			c-0.2,0.5-0.7,4.1,0.2,4.7c0.5-0.1,0.8-0.4,1-0.8c0.5-0.8,1.2-1.3,2.1-1.3c1,0,2,0.2,3,0.4c0.8,0.2,8.2,0.1,8,0.9
			c-0.1,0.3-0.4,1.3-0.4,1.6c-0.1,0.9-0.8,3.7-0.8,4c-0.2,0.8-0.5,1.5-0.7,2.3c-0.2,0.8-0.3,1.7-0.5,2.5c-0.1,0.4-0.3,0.9-0.4,1.3
			c-0.1,0.6-0.1,1.2-0.2,1.8c-0.1,1-0.4,1.8-1.8,1.7c-0.4,0-0.9-0.1-1.3-0.1c-0.4,0-0.8,0.1-0.9,0.4c-0.1,0.4,0,1,0.3,1.2
			c0.2,0.1,8.8,0,9.5,0c0.2,0,0.2-0.7-0.1-1c-0.6-0.4-1.4-0.1-2-0.5c-0.4-0.2-0.5-0.5-0.4-0.9c0.1-0.3,0.1-0.6,0.2-0.9
			c0.1-0.7,0.4-1.4,0.2-2.1c-0.2-0.5,0-1,0.3-1.4c0.2-0.4,0.4-0.8,0.6-1.2c0.1-0.4,0.2-0.9,0.2-1.4c0.1-0.8,0.2-1.6,0.5-2.4
			c0.2-0.5,0.1-1.2,0.1-1.8c0-1,0.4-1.9,0.9-2.8c0.3-0.4,0.7-0.8,1.2-0.8C137.4,14.7,142.7,14.8,145.7,14.8z M139.8,13.9
			C139.8,13.9,139.8,13.9,139.8,13.9L139.8,13.9C139.8,13.9,139.8,13.9,139.8,13.9c-0.1-0.4-0.2-0.5-0.5-0.3c0,0,0-0.7-0.1-0.7
			C139.5,13,140.1,13.7,139.8,13.9z M129.6,25.4c0.5,0,0.1,0.3,0.5,0.4c0.1,0,0.9-0.4,0.9-0.5c-0.1-0.3-0.6-0.4-0.8-0.5
			c0.3-0.3,1.3-0.2,1.7-0.2c-0.3,0.4-0.3,0.7,0.2,1C131.6,25.7,129.5,26.5,129.6,25.4z M130.3,24.5
			C130.3,24.5,130.3,24.5,130.3,24.5L130.3,24.5C130.3,24.5,130.3,24.5,130.3,24.5c0.2-0.5,2-1.2,2-1.2
			C132.8,23.6,130.5,24.4,130.3,24.5z"/>
		<path class="st2" d="M145.7,14.8c0.1,0,0.2,0,0.3,0C146,14.7,145.9,14.7,145.7,14.8z"/>
		<path class="st2" d="M157,19.3c0.2-0.1,0.3-0.1,0.3-0.2c0,0-0.1,0-0.1,0c-0.4-0.1-0.8,0.1-1.2,0.1c-0.1,0.2-0.1,0.5-0.2,0.7
			c0.5,0.6,0.9,1.5,0.6,1.7c0,0,0,0,0,0h0c0,0,0,0,0,0c-0.3-0.3-0.5-0.8-0.8-1.3c-0.5,1.5-1,3-1.4,4.5c-0.2,0.7-1.2,3.1-1.6,3.5
			c-0.2,0.2-0.4,0.4-0.5,0.6c-0.4,0.7-1.1,1-1.8,0.9c-0.5,0-1-0.1-1.4,0c-0.6,0-0.9,0.6-0.8,1.1c0.1,0.5,0.6,0.8,1.1,0.8
			c1.1,0,6.2,0,6.5,0c0.7,0,2.9,0.1,3.1-0.1c0.4-0.3,0.3-1.1-0.2-1.3c-0.3-0.1-2.7-0.4-3-0.4c-0.6-0.1-0.8-1.3-0.3-1.8
			c0.4-0.4,0.5-0.8,0.5-1.3c0-0.1,0-0.2,0-0.3c-0.3,0-0.5-0.2-0.6-0.4c0.1,0,0.4,0,0.6-0.1c0-0.2,0-0.5,0-0.7c0-0.4,0.1-0.7,0.3-1
			c0.3-0.4,0.6-0.8,0.7-1.3c0.4-1.2,0.7-2.4,1-3.6C157.5,19.8,157.2,19.8,157,19.3z"/>
		<path class="st2" d="M172.8,18.8c0.2-0.8,0.6-1.6,1-2.3c0.4-0.6,0.9-1.3,1.3-1.9c0.4-0.6,0.2-1.3-0.5-1.5c-1-0.3-1.9-0.5-3-0.4
			c-0.8,0-1.6,0-2.4-0.4c-0.1-0.1-0.3-0.1-0.4-0.1c-0.5,0-0.7,0.3-0.5,0.7c0.1,0.2,0.2,0.4,0.4,0.6c0.6,0.7,1.4,1.2,2.3,1.4
			c0.3,0,0.6,0.2,0.5,0.5c-0.3,0.7-0.4,1.5-0.5,2.2c0,0.1-0.1,0.1-0.1,0.1c-0.3,0.3-0.4,0.8-0.4,1.2c0,0.2,0,0.4,0,0.5
			c-0.3,0.8-0.2,1.8-0.8,2.4c-0.1,0.1-0.1,0.2-0.1,0.3c-0.4,1.2-0.8,2.4-1.2,3.6c-0.2,0.6-0.4,0.7-0.9,0.3c-0.7-0.5-1.3-1.2-1.6-2
			c-0.3-0.7-0.5-1.5-0.8-2.2c-0.3-0.6-0.6-1.2-0.9-1.8c-0.3-0.8-0.7-1.6-1.2-2.3c-0.3-0.3-0.5-0.7-0.7-1c-0.1-0.1-0.2-0.2-0.2-0.4h0
			c0,0,0,0,0,0c0-0.1-0.1-0.2-0.1-0.3c-0.4-1-0.9-1.9-1.5-2.9c-0.5-0.8-1.2-1.2-2.1-1.1c-0.4,0-0.7-0.1-1.1-0.3
			c-1-0.7-2.1-0.8-3.3-0.5c-0.6,0.1-0.8,0.6-0.4,1c0.4,0.4,0.8,0.8,1.3,1.2c0-0.1-0.1-0.2,0-0.3c0.1,0.1,0.3,0.4,0.6,0.6
			c0.1,0,0.3,0.1,0.4,0.1c0.9,0.2,1.3,0.8,1,1.7c-0.1,0.2-0.2,0.4-0.3,0.6c-0.1,0.3-0.3,0.6-0.4,0.9c-0.1,0.3-0.1,0.6-0.1,0.9
			c0.1,0,0.2-0.1,0.3-0.1c0.1,0.4,0.5,0.8,0.8,1c0,0,0.1-0.4,0.1-0.7c0-0.1,0-0.2,0.1-0.2c0,0,0,0.1-0.1,0.2c0,0.1,0,0.1,0.1,0.2
			c0,0,0-0.1,0.1-0.1c0.4,0.5,0.3,0.2,0.7,0.1c0.1-0.2,0.2-0.3,0.4-0.4c-0.3-0.7-0.9-1.7-0.6-1.8c0.1,0.3,0.7,1.1,0.9,1.7
			c0,0,0,0,0,0c0.4-0.1,0.7,0.1,0.9,0.4c0.2,0.3,0.3,0.6,0.4,0.8c0.3,0.7,0.6,1.4,1,2.1c0.2,0.4,0.4,0.7,0.3,1.1
			c-0.1,0.7,0.3,1.1,0.7,1.6c0.2,0.2,0.3,0.4,0.4,0.6c0.2,0.7,0.4,1.4,0.8,1.9c0.1,0.1,0.2,0.4,0.2,0.6c0.1,1.2,0.8,2.1,1.3,3.2
			c0.2,0.4,0.3,0.9,0.5,1.3c0.1,0.3,0.2,0.6,0.5,0.8c0.8,0.7,1.7,0.6,2.6,0.3c0.2-0.1,0.3-0.3,0.4-0.5c0.1-0.4,0-0.8-0.3-1.2
			c-0.3-0.5-0.4-0.9-0.1-1.5c0.2-0.3,0.4-0.6,0.5-1c0.3-0.8,0.6-1.6,0.8-2.5c0.1-0.4,0.2-0.8,0.3-1.2c-0.1-0.6-0.2-1.3-0.3-1.4
			c0.1,0.1,0.2,0.2,0.3,0.3h0c0,0.2,0,0.4,0,0.5c0,0,0,0,0-0.1c0-0.1,0.1-0.2,0.1-0.4c0.4-0.7,0.8-1.5,1.2-2.2
			c0.1-0.2,0.1-0.5,0.2-0.8c0-0.2,0.1-0.4,0.2-0.6C172.4,19.5,172.7,19.2,172.8,18.8z M164.7,28.9c0-0.2,0.6-0.1,0.5-0.4h0
			c0.2,0.1,0.3,0.4,0.4,0.7C165.6,29.4,164.6,29.3,164.7,28.9z M164.9,27.3c0.1,0.1,0.2,0.1,0.4,0.1v0c0.3,0.6,0.6,1.8,1.3,1.3
			c0.2,0.5-0.2,0.3,0.1,0.9C166.1,30,165.1,27.5,164.9,27.3z M166.9,27.5c-0.7,0.2-0.9-2.5-1-2.8c0.1,0.1,0.2,0.2,0.3,0.3h0
			c0.1,0.7,0,1.9,0.9,1.6C167.1,27.2,166.8,26.8,166.9,27.5z"/>
		<path class="st2" d="M157.3,19.2c1.2,0.2,0.4-0.3,0.2-0.8C157.3,18.8,157.6,19,157.3,19.2z"/>
		<path class="st2" d="M98.8,31.8c-0.6-0.2-1.5-1.1-2.1-1.2c-0.9-0.2-1.3,2-7.5,1.6c-2.4-1.1-5.9-3.3-6.4-4.1
			c-0.2-0.3-0.4-0.5-0.4-0.8c-0.1-0.5-0.5-0.8-0.7-1.1c-0.4-0.5-0.8-1.1-1.1-1.7c-0.2-0.5-0.3-1-0.5-1.6c-0.1-0.5-0.1-0.9,0.4-1.3
			c0.2-0.2,0.5-0.4,0.7-0.6c0.4-0.5,0.9-0.5,1.5-0.5c0.1,0,0.2,0,0.3,0c0.2-0.1,0.4-0.2,0.7-0.3c0,0,0,0.1,0,0.1
			c0.5-0.2,0.8-0.5,1-1.1c0.1-0.2,0.3-0.4,0.4-0.7c0.1-0.3,0.3-0.6,0.3-0.9c0-0.5,0.1-0.8,0.4-1.2c0.4-0.6,0.3-0.9-0.4-1.1
			c-0.2-0.1-0.5-0.3-0.6-0.5c-0.2-0.4-0.3-0.8-0.4-1.2c-0.1-0.5-0.3-0.7-0.8-0.8c-0.9-0.2-1.8-0.4-2.7-0.7c-0.8-0.3-1.5-0.3-2.3-0.3
			c-0.9,0-1.7,0-2.6,0c-1.2,0-2.4,0-3.7,0c-0.2,0-0.4,0-0.5,0.1c-0.4,0.1-0.5,0.3-0.2,0.6c0.2,0.3,0.5,0.5,0.8,0.7
			c0.5,0.3,1,0.5,1.5,0.8c0.5,0.3,0.6,0.6,0.5,1.1c-0.1,0.7-0.3,1.4-0.4,2c-0.2,0.9-0.2,1.8-0.7,2.5c-0.2,0.4-0.3,0.8-0.4,1.2
			c0,0.1-0.2,0.6-0.3,1.1c0.2-0.3,0.7-0.3,1.1-0.5c0.1,0.1-0.3,0.4-0.1,0.3c0.2-0.1,0.3-0.1,0.5-0.2c0,0.1-1.3,0.6-1.6,0.7
			c0-0.1,0-0.1,0-0.1c-0.3,1.1-0.7,2.5-0.7,2.9c0,0.3-0.1,0.6-0.2,0.8c-0.1,0.3-0.3,0.6-0.4,0.9c-0.1,0.3-0.1,0.7-0.1,1.1
			c-0.4,2.8-1.5,2.5-2.7,2.8c-0.3,0.1-0.5,0.3-0.6,0.5c-0.3,1.1,1.9,0.6,5.5,0.6c0.6,0,4.2,0.2,4.8,0c0.1,0,0.3-0.5,0.2-0.6
			c0-0.2-0.2-0.4-0.3-0.4c-0.9-0.2-4.1-0.3-3.9-1c0.2-0.6,0.5-2,0.6-2.7c0.1-0.4,0.3-0.8,0.4-1.2c0.1-0.3,0.2-0.7,0.3-1
			c0.1-0.5,0.2-1,0.4-1.5c0.3-0.6,1.2-0.6,1.6-0.1c1.2,1.6,2.2,3.3,2.8,5.2c0.1,0.4,4.9,3.9,5.1,4.3c4.9,2.9,10.2,1.7,10.9,1.7
			c0.8,0,3.3-0.8,3.4-1.3C99.3,32.4,99.3,31.9,98.8,31.8z M69.2,31.9c-0.3-0.5,1.1-0.7,1.3-0.6C70.4,31.4,69.2,31.8,69.2,31.9z
			 M78.6,20.9c-0.4,0.2-0.7,0.4-1.1,0.5c0,0.2,0,0.3,0.1,0.4c0.2,0.2,0.2,1.1,0.1,1.4c0,0-1.5-1.3-1.5-1.5c0.3,0.1,0.6,0.2,0.9,0.2
			c0-0.2,0.1-0.4,0.1-0.5c-0.1,0-0.2,0-0.3,0c-0.8-0.1-1.2-0.7-0.9-1.4c0.4-0.8,0.3-1.6,0.2-2.4c-0.1-0.4,0-0.8,0.4-1
			c0.4-0.3,0.6-0.6,0.5-1.1c0-0.3,0-0.6,0.1-0.8c0.2-0.8,0.5-1,1.7-1c0.9-0.1,1.8,0.3,2.7,0.8c0.5,0.3,0.7,0.8,0.6,1.4
			c-0.1,0.6-0.1,1.2-0.2,1.8c0,0.1,0,0.2,0,0.2c-0.7,1-1.1,2.3-2.6,2.6C79.2,20.6,78.9,20.7,78.6,20.9z M96.7,34L96.7,34
			C96.7,34,96.7,34,96.7,34c-0.5,0-0.5-0.2-0.2-0.8C97,33.3,97,33.6,96.7,34C96.7,34,96.7,34,96.7,34z"/>
		<path class="st2" d="M101.4,27.9c0.2,0,0.4-0.2,0.4-0.4c0.4-1.2,0.7-2.3,1-3.5c0-0.2,0-0.3,0-0.5c0-0.2-0.2-0.3-0.4-0.2
			c-0.4,0.2-0.9,0.6-1.1,0.9c-0.4,0.5-0.8,0.7-1.4,0.8c-0.5,0.1-1,0.2-1.4,0.4c-0.7,0.3-1.4,0.6-2.2,0.5c-0.4,0-0.9,0-1.3,0
			c-1.1,0-2-0.5-2.8-1.3c-0.5-0.5-0.4-3.4,0.3-4c0.2-0.2,0.5-0.4,0.8-0.4c0.6,0,1.2,0,1.8,0.1c0.6,0,1.1,0.3,1.5,0.7
			c0.3,0.4,0.6,0.8,0.8,1.3c0.2,0.3,0.5,0.3,0.7,0.1c0.4-0.4,0.6-0.8,0.7-1.4c0.1-1,0.2-1.9,0.7-2.8c0.1-0.1,0.2-0.3,0.2-0.4
			c0-0.3,0-0.6-0.2-0.7c-0.2-0.1-0.5-0.1-0.8-0.1c-0.3,0.1-0.5,0.3-0.7,0.5c-0.3,0.2-0.6,0.5-0.9,0.7c-0.2,0.1-0.4,0.2-0.6,0.2
			c-0.9,0-1.9-0.1-2.8-0.1c-1.2,0-0.9-2.4-0.8-2.6c0.3-0.5,0.8-0.9,0.9-1.6c0-0.2,0.3-0.3,0.5-0.4c0.9-0.1,1.9-0.6,2.9-0.2
			c0.1,0,1.9,0,2,0c0.4,0,0.8,0.1,1.1,0.3c0-0.1,0-0.1,0.1-0.2c0,0,0,0,0,0h0c0,0,0,0,0,0c0.1,0.1,0.2,0.3,0.3,0.4
			c0.2,0.2,0.5,0.4,0.6,0.7c0.2,0.3,0.7,1,1.1,1.5c0.2,0.2,0.5,0.2,0.7,0c0.3-0.5,0.7-1.2,0.8-1.5c0.1-0.4,0.3-0.9,0.4-1.3
			c0-0.2,0.4-1.1,0.3-1.3c-0.5-0.9-1.6-0.6-2.7-0.3c-1,0.2-3.7,0.2-4.8-0.1c-0.2-0.1-0.4-0.1-0.6-0.1c-0.9,0-1.8,0-2.7,0
			c-0.3,0.2-1.1,0.2-1,0h0c0,0,0,0,0,0c-0.1,0-0.2,0-0.3,0c-0.7,0-1.4,0-2.1-0.4c-0.6-0.3-1.2-0.3-1.8-0.2c-0.7,0-1.1,0.9-0.8,1.5
			c0.3,0.5,0.7,0.9,1.2,1.1c0.7,0.3,1,0.7,0.8,1.4c-0.3,1-0.2,2-0.6,3c-0.5,1.2-0.1,0.6-0.5,1.9c0,0.1-0.1,0.2-0.1,0.3
			c-0.1,0.9-0.2,2.5-0.6,3.4c-0.3,0.7-0.9,1.2-1.7,1.3c-0.1,0-0.2,0-0.2,0.1c0,0,0,0,0,0c0.1,0.3-0.2,1.1-0.3,1.4c0,0-0.3-0.5-0.6-1
			c-0.4,0.2-0.5,0.7-0.3,1.1c0.4,0.7,1,1.1,1.8,1.1c1.5,0,3.1,0,4.6,0c0.6,0,1.2,0.1,1.8,0.2c0.2,0,0.5,0,0.7,0
			c0.6,0,1.1-0.2,1.7-0.2c0.9,0,1.8,0,2.6,0c0.7,0,1.4-0.1,2.1,0.2C100.8,28,101.1,27.9,101.4,27.9z M104,11.8L104,11.8
			c-0.1,0.2-0.2,0.5-0.2,0.7C103.4,12.4,103.6,11.7,104,11.8z M91.1,26.5c0.3-0.2,0.2-0.7,0.7-0.4h0C92.6,26.8,91.8,26.9,91.1,26.5z
			"/>
		<path class="st2" d="M191.5,14.1c0-0.2,0.1-0.5,0-0.7c-0.5-0.8-1.1-1.3-2.3-1c-1,0.2-2,0.2-3.1-0.1c-0.2-0.1-0.4-0.1-0.6-0.1
			c-0.2,0-0.3,0-0.5,0c-0.1,0.1-0.2,0.3-0.3,0.4c0,0,0,0,0,0h0c0,0,0,0,0,0c-0.2-0.1-0.3-0.3-0.3-0.4c-1,0-1.9,0-2.9,0
			c-0.7,0-1.4,0-2.1-0.4c-0.6-0.3-1.2-0.3-1.8-0.2c-0.6,0-1.1,0.9-0.8,1.4c0.3,0.5,0.6,1,1.2,1.2c0.7,0.2,1,0.8,0.9,1.7
			c-0.1,0.5-0.8,3.9-1.1,4.8c-0.2,0.7-0.5,1.3-0.7,2c-0.1,0.4-0.3,1.2-0.6,2.1c0.3,0.1,0.6,0.4,0.5,0.7c-0.2,0-0.5-0.1-0.6-0.2
			c-0.3,1.2-0.7,2.5-1,3c-0.3,0.7-0.9,1.1-1.7,1.2c-0.4,0-0.8,0.2-1.1,0.4c-0.5,0.3-0.6,0.7-0.3,1.2c0.4,0.7,1,1.1,1.8,1.1
			c0.8,0,3.6-0.1,6.4-0.1c0.2,0,0.4-0.1,0.5,0c0,0,0,0,0,0c3,0,5.9,0.1,6.8,0.3c0.4,0.1,0.9-0.1,1-0.4c0.3-1.1,0.7-2.3,1-3.4
			c0.1-0.3,0.4-0.8,0-0.9c-0.5-0.1-1.2,0.6-1.5,1.1c-0.4,0.5-0.8,0.7-1.4,0.8c0,0,0,0.1,0,0.1c-0.2,0-0.3,0-0.4,0
			c-0.4,0.1-0.7,0.2-1,0.3c-0.7,0.3-1.5,0.6-2.3,0.5c-0.4,0-0.9,0-1.3,0c-1.1,0-2-0.5-2.8-1.3c-0.5-0.5-0.5-1.1-0.1-1.7
			c0.1-0.1,0.2-0.3,0.3-0.4c0.1-0.7,0.3-1.4,0.3-2.1c0-0.9,0.5-1.4,1.1-1.9c0.2-0.1,0.4-0.2,0.6-0.2c0.6,0,1.1,0.1,1.7,0.1
			c0.7,0,1.3,0.3,1.8,0.9c0,0.1,0.1,0.1,0.1,0.2c0.2-0.3,0.3-0.1,0.3,0.4c0.1,0.2,0.2,0.4,0.3,0.5c0.3,0.4,0.4,0.4,0.8,0.1
			c0.4-0.4,0.6-0.8,0.7-1.4c0.1-1,0.2-2,0.8-2.8c0-0.1,0.1-0.2,0.1-0.3c0.1-0.3,0.2-0.7-0.1-0.9c-0.1-0.1-0.3-0.1-0.4-0.1
			c0,0.2,0,0.4,0,0.5c-0.2,0-0.4-0.1-0.6-0.3c-0.2,0.1-0.4,0.3-0.6,0.4c-0.3,0.2-0.6,0.5-0.9,0.7c-0.2,0.1-0.4,0.2-0.5,0.2
			c-1,0-1.9-0.1-2.9-0.1c-1.1,0-1.3-0.3-0.8-1.3c0.3-0.7,0.6-1.4,0.6-2.1c0-0.5,0-0.9,0.3-1.4c0.3-0.4,0.5-0.8,0.8-1.2
			c0.1-0.2,0.4-0.4,0.6-0.4c0.6-0.1,1.3-0.3,1.9-0.4c0.1-0.3,0.4-0.4,0.4-0.4c0.1,0.4,0,0.1,0.5,0.3c0,0.1-0.1,0.1-0.1,0.2
			c0.1,0,0.1,0,0.2,0.1c0.1,0.1,0.3,0,0.4,0c0.9,0.1,1.6,0.5,2.1,1.2c0.4,0.5,0.9,0.7,1.5,0.8c0.6,0.1,1-0.2,1.1-0.8
			C191.2,14.9,191.4,14.5,191.5,14.1z M175.6,30.3L175.6,30.3c0.1-0.5-0.1-0.4,0.3-0.8C176.1,29.6,176.1,30.6,175.6,30.3z
			 M187.9,31.4C187.9,31.4,187.9,31.4,187.9,31.4L187.9,31.4C187.9,31.4,187.9,31.4,187.9,31.4c0.5,0.4-0.1,0.6,0,0.8
			C186.6,31.7,187.8,31.6,187.9,31.4z M180.5,30.5c0.1-0.1,0.8,0,1,0.1c-0.1,0.4-0.2,0.4-0.3,0.8C180.9,31.3,180.4,30.6,180.5,30.5
			L180.5,30.5z M178.9,29.7c0,0.4-0.2,0.4-0.2,0.8c-0.2,0-0.9-0.6-0.8-0.7h0C178,29.7,178.7,29.7,178.9,29.7z M179.7,21.4
			c0-0.3-0.1-0.4-0.4-0.4h0C179.5,20.1,179.8,20.5,179.7,21.4z"/>
		<path class="st2" d="M176.5,25C176.5,24.9,176.5,24.9,176.5,25C176.4,25,176.4,25,176.5,25C176.4,25,176.4,25,176.5,25L176.5,25z"
			/>
		<path class="st2" d="M187.1,19.6c0,0,0-0.1,0-0.1c-0.1,0-0.2,0.1-0.3,0.1C186.9,19.6,187,19.7,187.1,19.6z"/>
		<path class="st2" d="M66.2,31.1c0-0.3-0.2-0.6-0.6-0.7c-0.4-0.1-0.9-0.2-1.1-0.3c-0.7-0.2-0.9-0.8-0.7-1.5
			c0.1-0.3,0.2-0.5,0.2-0.8c0-0.9,0.3-1.7,0.9-2.5c0.6-0.7,0.9-1.5,0.7-2.4c0-0.1,0-0.1,0-0.2c0-0.4,0.1-0.8,0.5-1.1
			c0.6-0.4,0.8-1,0.9-1.7c0-0.3,0-0.6,0.1-0.8c0.3-0.7,0.6-1.5,0.9-2.2c0.2-0.5,0.4-0.9,0.4-1.4c0.1-1.3,0.1-1.9,0.1-3.2
			c0-0.7-0.4-1.1-1.1-1.2c0.1,0.3,0.1,0.6,0,0.6c0-0.1-0.5,0.5-1-0.6c0,0,0,0,0,0c-0.4,0-0.6,0.3-0.7,0.6c-0.1,0.4-0.2,0.7-0.4,1
			c0,0.1-0.1,0.3-0.1,0.4c0.2-0.1,0.3-0.2,0.3-0.2c-0.2,0.3-0.2,0.4-0.2,0.5c0,0,0,0,0,0c0.1,0,0.7-0.6,0.8-0.1
			c-0.2,0.3-0.4,0.5-0.7,0.7c-0.2-0.1,0.2-0.5,0-0.6c0,0,0,0,0,0c0,0,0,0,0,0c0,0-0.1,0-0.1,0.1c0,1.1-0.2,1.6-1.3,2.3c0,0,0,0,0,0
			c-0.8,1.1-1.8,2.2-2.9,3.1c-0.3,0.2-0.6,0.5-0.8,0.8c0.2,0.1,0.4,0.1,0.5,0.1c-0.3,0.1-0.4,0.2-0.5,0.2c0,0,0,0,0,0
			c0.1,0.1,1,0,0.6,0.4c-0.3,0.1-0.7,0.1-1,0c-0.1-0.2,0.5-0.2,0.4-0.4c0,0,0,0,0,0c0,0,0,0,0,0c0,0-0.1,0-0.3,0
			c-1.6,1.5-3.1,3.2-4.9,4.5c0,0,0,0,0,0c-0.9,0.9-1.8,1.8-2.7,2.7c-0.8,0.7-1.6,1.8-2.3,2.6c-0.3,0.5-0.9,0.7-1.4,0.7
			c-0.6,0-1.2,0-1.7,0c0,0.1,0.1,0.2,0.1,0.4c0,0.1-0.1,0.2-0.2,0.2c-0.1-0.2-0.1-0.4-0.2-0.6c-0.7,0.1-1.5,0.1-2.1,0.3
			c-0.1,0-0.2,0.1-0.2,0.4c0,0.7,0.1,0.7,1.3,0.7c0.6,0,4.8,0,6,0c0.9,0,2.8,0.1,2.9-0.1c0.2-0.4,0.2-0.7,0-1
			c-0.2-0.3-0.4-0.2-0.5-0.6c-0.2-0.5,0-1.1,0.5-1.3c0.2-0.1,0.5-0.1,0.6-0.3c0.5-0.6,0.9-1.2,1.3-1.9c0.5-0.9,1.4-1.4,2.3-2
			c0.1-0.1,0.2-0.1,0.4-0.1c1,0,2.1,0,3.1,0c0.2,0,0.3,0,0.5,0.1c0.4,0.1,0.6,0.4,0.5,0.8c-0.1,0.3-0.3,0.6-0.5,0.9
			c-0.2,0.2-0.5,0.4-0.7,0.6c-0.3,0.2-0.4,0.4-0.5,0.8c-0.2,0.6-0.5,1.2-0.8,1.8c-0.3,0.6-0.8,0.8-1.4,0.8c-0.6,0-1.1,0.1-1.7,0.3
			c-0.5,0.2-0.5,0.7,0,0.9c0.4,0.2,0.9,0.4,1.4,0.4c1.6,0,5.3,0,6.9-0.1C65.9,31.8,66.2,31.5,66.2,31.1z M51.9,28.8
			C51.9,28.8,51.9,28.9,51.9,28.8C51.8,28.9,51.8,28.9,51.9,28.8c-0.1-0.2-0.4-0.5-0.2-0.8c0.2,0.5,0.4-0.2,0.6,0.4
			C52.2,28.3,51.9,28.7,51.9,28.8z M61.4,29.2c-0.1-0.4,0.5-2,1-1.8C62.2,27.9,61.9,29.5,61.4,29.2z M62,22.9c-0.1,0-0.2,0-0.3-0.1
			c0.2,0.2,0.3,0.5,0.3,0.9c-1.2-0.3-0.3-0.5-0.8-1c0,0,0,0,0,0c-0.4-0.2-0.4-0.5-0.2-0.8c0.3-0.4,0.7-0.7,1-1.1
			c0.2-0.3,0.4-0.6,0.6-0.9c0.3-0.5,0.4-1,0.7-1.5c0.3-0.5,0.9-0.6,1.4-0.5c0.4,0.2,0.6,0.5,0.4,0.9c-0.1,0.2-0.1,0.3-0.2,0.5
			c-0.4,0.6-0.8,1.3-0.9,2c0,0,0,0,0,0C63.7,22.5,63.2,22.9,62,22.9z"/>
		<path class="st2" d="M205.7,12.8c-0.8-0.2-1.6-0.6-2.4-0.9c-0.9-0.3-2.2-0.6-3.1-0.3c-0.8,0.3-1.2,0.3-1.9,0.7c0,0,0,0,0,0
			c-0.1,0.1-0.1,0.3-0.1,0.4c0.1,0,0.2,0.1,0.4,0.1h0c0.2,0,0.4,0.1,0.4,0.3c0,0.1-1.4-0.2-1.5-0.1c0-0.1,0.3-0.4,0.6-0.6
			c-0.3,0.2-0.6,0.4-1.1,0.7c-0.1,0.1-0.3,0.2-0.3,0.4c-0.3,0.8-0.5,1.7-0.8,2.5c-0.1,0.5-0.1,1,0.2,1.4c0.1,0.3,0.3,0.7,0.3,1
			c0.1,1.6,0.9,2.8,1.8,4.1c0.1,0.2,0.3,0.4,0.3,0.6c0.1,0.6,0.4,1.2,0.8,1.7c0.6,0.8,0.9,1.6,0.9,2.6c0.1,1.5-0.8,2.9-2.2,3.1
			c-0.6,0.1-1.2,0-1.8,0.1c-0.9,0.1-1.6-0.3-2.2-1c-0.5-0.6-0.7-1.1-0.5-1.9c0.1-0.3,0.1-0.6,0-0.8c-0.1-0.2-0.3-0.4-0.5-0.4
			c-0.1,0-0.3,0.2-0.4,0.3c-0.4,0.7-0.8,1.3-1.1,2c-0.2,0.4-0.4,0.9-0.5,1.4c-0.2,0.8,0.2,1.1,0.9,1.3c0.7,0.1,1.3,0.2,1.9,0.5
			c2.1,0.8,4.1,0.8,6.2,0c0.4-0.1,0.8-0.4,1.1-0.7c0.5-0.4,0.9-0.9,1.4-1.4c0.6-0.5,0.9-1.2,0.9-2c0-0.5-0.1-0.9-0.1-1.4
			c-0.4,0-0.6,0-0.6-0.4h0c0.3-0.1,0.4,0.1,0.5,0c0-0.2-0.1-0.4-0.1-0.6c-0.1-0.6-0.1-1.2-0.5-1.8c-0.6-0.9-1.2-1.9-1.7-2.8
			c-0.3,0.4-0.8,1.1-1.1,0.6c0,0,0,0,0,0h0c0,0,0,0,0,0c0.3,0.2,0.2-1.5,0.2-1.5c0.1,0.1,0.3,0.2,0.5,0.3c-0.3-0.6-0.7-1.1-1.1-1.7
			c-0.2-0.3-0.3-0.8-0.4-1.2c-0.1-0.3,0-0.7,0-1c0-0.4,0-0.8,0-1.1c0-0.6,0.2-1.2,0.8-1.5c0.4-0.2,0.7-0.5,1-0.8
			c0.1-0.1,0.2-0.1,0.3-0.2c0.6-0.2,1.1-0.2,1.6,0.1c0.1-0.1,0.2-0.1,0.3,0c0,0,0,0.1-0.1,0.1c0.1,0.1,0.2,0.2,0.3,0.3
			c0.1,0.1,0.2,0.2,0.3,0.3c0.9,0.6,1.5,1.3,1.5,2.5c0,0.5,0.5,0.8,0.8,0.4c0.6-0.7,1.1-1.5,1-2.5C206.6,13.4,206.4,13,205.7,12.8z
			 M200.8,24.6c0.3,0.3,0.2-1.5,0.2-1.5c0.3,0.3,0.7,0.5,1.1,0.6C201.9,23.9,201.2,25.2,200.8,24.6L200.8,24.6z M199.6,22.4
			c0.1,0.9-0.3,0.2-0.3,0.8C198.8,23.2,198.9,22.2,199.6,22.4z M199.3,24.1L199.3,24.1c-0.2,0.1-1.1-0.3-0.5-0.7
			C199,23.8,199.1,23.9,199.3,24.1z"/>
		<path class="st2" d="M147.7,19.2c-0.2-0.1-0.4-0.2-0.6-0.3c-0.9,0-1.7,0-2.6,0c0,0,0,0,0,0c-0.9,0-2.8,0-3.7,0
			c-0.2,0-0.4,0-0.5,0.1c-0.4,0.1-0.5,0.5-0.3,0.8c0.1,0.2,0.4,0.4,0.6,0.5c0.4,0.2,2.2,0.4,2.7,0.6c0.5,0.2-2,5.1-1.9,6.2
			c0,0.6-0.4,1.9-0.6,2.5c-0.3,0.8-1.6,0.6-2.5,0.6c-0.5,0-1.4,0.2-1.6,0.6c-0.3,0.8,0.5,1.1,1.3,1c0.3,0,8.6-0.1,8.6-0.1
			c0.9-1.3-1.9-1.2-2.7-1.2c-0.4,0-0.5-0.4-0.4-0.8c0.5-1.6,0.9-3.2,1.4-4.8c0.3-0.9,0.6-1.9,1.2-2.9c0,0,0-0.1,0.1-0.1
			c-0.9,0.1-2,0-1.7-0.7c0.5,0.2,0,0.3,0.4,0.5h0c0.1,0,1-0.2,1-0.3c-0.1-0.3-0.5-0.5-0.7-0.7c0.3-0.2,1.4,0.1,1.7,0.1
			c-0.1,0.1-0.2,0.2-0.3,0.3c0.9-1.1,1.1-0.7,1.2-1.2C148,19.7,148,19.5,147.7,19.2z"/>
		<path class="st1" d="M65.4,13.4C65.4,13.4,65.4,13.4,65.4,13.4"/>
		<line class="st1" x1="31.3" y1="13.1" x2="31.3" y2="13.1"/>
		<path class="st1" d="M60.3,19.9C60.3,19.9,60.3,19.9,60.3,19.9"/>
		<path class="st1" d="M59,17.4C58.9,17.4,58.9,17.4,59,17.4"/>
		<path class="st1" d="M51.5,12.1c0,0.1,0,0.2,0,0.3"/>
		<path class="st1" d="M151,5.6C150.9,5.6,150.9,5.6,151,5.6"/>
		<path class="st1" d="M110.6,6c0,0,0,0.1,0,0.1"/>
		<line class="st1" x1="111.6" y1="6.3" x2="111.6" y2="6.3"/>
		<path class="st1" d="M117.5,7.2C117.5,7.2,117.5,7.2,117.5,7.2"/>
	</g>
</g>
</svg>
